<?xml version="1.0" standalone="no"?>
<!DOCTYPE svg PUBLIC "-//W3C//DTD SVG 20010904//EN"
 "http://www.w3.org/TR/2001/REC-SVG-20010904/DTD/svg10.dtd">
<svg version="1.0" xmlns="http://www.w3.org/2000/svg"
 width="896.000000pt" height="896.000000pt" viewBox="0 0 896.000000 896.000000"
 preserveAspectRatio="xMidYMid meet">
<metadata>
Created by potrace 1.14, written by Peter Selinger 2001-2017
</metadata>
<g transform="translate(0.000000,896.000000) scale(0.100000,-0.100000)"
fill="#000000" stroke="none">
<path d="M4444 8330 c-3 -2 -26 -5 -52 -6 -26 -1 -64 -6 -84 -12 -23 -6 -40
-7 -44 -1 -3 5 -10 7 -15 3 -5 -3 -44 -7 -87 -9 -48 -3 -76 -8 -74 -15 2 -8
-4 -8 -18 0 -13 7 -20 7 -20 1 0 -7 -9 -7 -25 -1 -17 7 -25 6 -25 -1 0 -8 -5
-7 -15 1 -10 9 -15 9 -15 1 0 -6 -3 -10 -7 -9 -5 1 -27 -2 -51 -6 -23 -4 -52
-9 -65 -11 -65 -8 -113 -17 -127 -25 -8 -4 -18 -8 -22 -9 -5 -1 -9 -1 -10 -2
-2 0 -19 -2 -38 -4 -19 -1 -36 -7 -38 -13 -1 -5 -12 -8 -22 -5 -12 3 -20 0
-20 -7 0 -7 -6 -10 -14 -7 -8 3 -17 3 -21 -1 -4 -4 -10 -7 -13 -7 -21 -2 -52
-18 -52 -27 0 -5 -7 -8 -15 -4 -10 3 -15 -1 -15 -12 0 -11 -3 -13 -8 -6 -9 15
-29 11 -90 -18 -28 -14 -49 -21 -46 -16 3 4 -11 -1 -30 -13 -20 -12 -36 -27
-36 -35 0 -8 -3 -14 -7 -15 -79 -5 -138 -13 -138 -19 0 -1 -13 -3 -30 -6 -43
-5 -59 -9 -70 -15 -5 -4 -27 -9 -47 -13 -21 -4 -38 -11 -38 -16 0 -5 -6 -7
-13 -4 -7 2 -40 -8 -73 -22 -32 -15 -65 -27 -71 -25 -7 1 -13 -3 -13 -10 0 -6
-7 -9 -15 -5 -8 3 -15 1 -15 -4 0 -6 -9 -10 -21 -10 -24 0 -105 -36 -114 -50
-4 -6 -11 -8 -16 -5 -5 4 -9 3 -9 -2 0 -8 -85 -47 -105 -48 -5 -1 -9 -6 -7
-13 1 -7 -4 -11 -10 -10 -7 2 -12 -3 -10 -10 2 -9 -4 -12 -16 -8 -12 4 -30 -2
-47 -16 -16 -12 -34 -23 -41 -24 -7 -1 -28 -13 -46 -27 -18 -14 -58 -37 -88
-52 -30 -15 -63 -37 -73 -49 -10 -12 -22 -21 -25 -21 -17 -1 -59 -30 -84 -57
-16 -16 -32 -26 -38 -23 -5 3 -10 2 -10 -4 0 -5 -13 -18 -29 -27 -17 -10 -28
-21 -26 -24 2 -4 -7 -13 -20 -20 -14 -7 -25 -17 -25 -22 0 -4 -6 -8 -13 -8
-15 0 -73 -61 -70 -72 2 -4 -4 -5 -11 -2 -15 6 -56 -28 -56 -46 0 -5 -9 -10
-20 -10 -12 0 -22 -9 -26 -24 -3 -15 -16 -27 -30 -30 -14 -4 -23 -10 -20 -14
3 -5 -9 -17 -27 -27 -30 -18 -82 -65 -71 -65 3 0 -8 -11 -25 -25 -16 -14 -33
-35 -36 -45 -4 -11 -13 -20 -21 -20 -8 0 -14 -7 -14 -16 0 -8 -4 -13 -9 -9 -5
3 -12 -4 -16 -15 -3 -11 -13 -20 -20 -20 -8 0 -17 -5 -21 -12 -5 -7 -2 -8 7
-3 8 5 4 -3 -9 -17 -12 -13 -19 -28 -15 -33 5 -4 3 -5 -4 -1 -14 8 -59 -34
-68 -64 -4 -11 -11 -18 -16 -15 -10 7 -39 -18 -39 -34 0 -6 -5 -11 -11 -11 -5
0 -8 -4 -5 -9 3 -4 -6 -13 -19 -19 -14 -7 -24 -15 -23 -19 2 -5 -8 -21 -22
-36 -14 -16 -23 -29 -20 -31 3 -1 -14 -19 -37 -40 -24 -21 -43 -44 -43 -50 0
-15 -52 -62 -64 -58 -5 2 -6 -4 -3 -12 3 -8 -1 -17 -9 -20 -8 -3 -13 -9 -12
-13 2 -4 -12 -23 -29 -42 -18 -18 -30 -37 -27 -42 3 -5 -6 -19 -20 -32 -19
-18 -22 -26 -14 -41 8 -14 8 -17 -2 -11 -12 8 -50 -26 -50 -45 0 -12 -25 -41
-35 -40 -3 0 -4 -3 -3 -7 2 -5 7 -7 13 -5 5 2 -1 -8 -15 -22 -13 -15 -30 -24
-38 -21 -7 2 -10 1 -7 -4 3 -5 -6 -26 -20 -47 -21 -30 -23 -40 -13 -52 11 -13
11 -14 0 -8 -19 12 -41 -23 -36 -59 2 -16 0 -25 -4 -18 -11 17 -35 -5 -52 -47
-8 -19 -18 -38 -23 -41 -4 -3 -9 -12 -10 -20 -2 -8 -13 -32 -25 -52 -25 -43
-27 -51 -11 -42 6 4 5 -2 -3 -14 -7 -12 -17 -21 -21 -21 -5 0 -7 -7 -3 -15 3
-8 2 -15 -2 -15 -4 0 -12 -8 -17 -19 -41 -77 -56 -116 -52 -132 3 -10 2 -17
-2 -16 -3 1 -7 -2 -8 -7 -1 -5 -5 -12 -10 -15 -13 -8 -43 -71 -43 -88 0 -7 -6
-13 -12 -13 -9 0 -8 -4 2 -10 8 -5 10 -10 4 -10 -15 0 -46 -127 -40 -158 3
-15 1 -20 -6 -16 -7 5 -9 2 -5 -9 4 -11 -1 -18 -14 -22 -10 -4 -17 -10 -14
-15 3 -5 -2 -21 -11 -35 -9 -14 -18 -43 -18 -63 -1 -20 -5 -43 -10 -50 -4 -7
-4 -12 1 -11 22 4 24 -3 9 -26 -9 -14 -13 -25 -9 -25 4 0 -3 -7 -15 -16 -12
-8 -20 -20 -17 -25 4 -5 2 -9 -4 -9 -6 0 -8 -6 -5 -13 3 -8 -1 -32 -9 -55 -13
-36 -12 -42 2 -57 14 -14 14 -15 1 -10 -11 4 -16 -1 -17 -15 -1 -11 3 -18 8
-14 6 3 3 -10 -5 -30 -8 -20 -12 -36 -8 -36 3 0 1 -5 -6 -12 -16 -16 -16 -52
0 -42 7 4 8 3 4 -5 -13 -21 -17 -81 -5 -81 8 0 8 -4 -1 -15 -7 -8 -10 -27 -7
-41 2 -15 -2 -43 -10 -62 -8 -19 -11 -38 -6 -41 13 -8 25 -44 13 -36 -6 3 -10
-1 -10 -9 0 -9 4 -16 8 -16 10 0 9 -36 0 -46 -4 -3 -4 -13 -1 -22 4 -8 2 -13
-3 -9 -5 3 -9 -12 -9 -33 0 -21 2 -38 5 -38 18 1 19 -4 5 -18 -10 -10 -12 -19
-7 -23 6 -3 9 -18 9 -33 -1 -14 -5 -24 -9 -21 -5 2 -8 -3 -8 -12 0 -9 5 -13
11 -9 6 3 3 -9 -7 -27 -16 -31 -16 -33 0 -20 14 12 16 12 10 -4 -5 -13 -4 -16
5 -11 16 11 9 -16 -9 -32 -11 -10 -11 -12 -1 -6 10 5 12 3 5 -7 -12 -20 -15
-49 -5 -49 11 0 9 -19 -3 -39 -5 -8 -3 -16 5 -22 8 -5 9 -9 4 -9 -6 0 -11 -9
-12 -19 -1 -14 3 -18 14 -14 10 4 14 2 9 -5 -3 -6 -3 -13 2 -16 6 -3 8 -61 2
-61 0 0 -3 -20 -5 -45 -2 -27 1 -48 8 -52 9 -6 9 -8 0 -8 -7 0 -13 -5 -13 -11
0 -5 5 -7 10 -4 6 3 10 1 10 -4 0 -6 -4 -11 -10 -11 -15 0 -12 -30 3 -36 15
-5 19 -64 4 -64 -5 0 -2 -12 8 -26 9 -15 12 -23 6 -20 -14 9 -14 -6 1 -41 16
-38 18 -63 5 -63 -6 0 -4 -6 5 -12 9 -7 18 -24 20 -38 2 -14 7 -28 13 -32 6
-5 6 -18 -2 -38 -9 -24 -9 -32 1 -36 13 -5 19 -44 6 -44 -4 0 -6 -9 -3 -20 3
-11 10 -20 15 -20 6 0 4 -8 -3 -17 -10 -11 -10 -14 -2 -9 9 5 13 0 13 -13 0
-12 5 -21 11 -21 5 0 8 -4 4 -9 -3 -5 -1 -12 4 -15 5 -3 8 -23 8 -44 0 -21 6
-49 15 -61 9 -12 14 -30 11 -40 -2 -9 3 -23 11 -30 9 -8 16 -22 16 -32 0 -11
5 -19 12 -19 6 0 9 -3 5 -6 -3 -4 1 -23 9 -42 8 -20 12 -42 10 -48 -3 -8 1
-11 10 -7 8 3 14 2 12 -3 -4 -13 25 -74 35 -74 5 0 7 -12 6 -28 -2 -15 1 -34
6 -42 11 -18 16 -38 16 -63 0 -9 4 -15 10 -12 5 4 9 1 9 -5 0 -15 43 -104 52
-108 4 -2 8 -12 8 -22 0 -10 4 -20 8 -22 14 -6 52 -66 52 -82 0 -9 5 -16 11
-16 5 0 7 -4 4 -10 -3 -5 -1 -10 5 -10 6 0 8 -4 5 -10 -3 -5 -1 -10 6 -10 7 0
10 -3 6 -6 -7 -7 62 -144 73 -144 5 0 7 -8 5 -17 -1 -10 7 -31 19 -48 13 -16
25 -38 29 -47 3 -10 11 -18 16 -18 10 0 81 -95 81 -108 0 -5 10 -18 23 -29 12
-11 31 -32 42 -46 11 -13 23 -23 28 -20 4 2 7 0 7 -5 0 -4 13 -23 30 -42 16
-18 26 -38 23 -44 -4 -6 2 -4 12 4 10 8 16 10 12 4 -3 -6 14 -33 38 -60 25
-27 45 -53 45 -57 0 -8 33 -45 34 -40 3 10 46 -13 46 -24 0 -9 6 -13 14 -10
11 4 13 1 9 -10 -4 -10 -2 -14 3 -10 6 3 21 -4 35 -17 13 -12 26 -22 29 -22
15 -1 80 -51 80 -62 0 -7 4 -11 8 -8 5 3 23 -8 40 -24 17 -16 34 -24 37 -19 9
13 25 11 23 -3 -2 -7 5 -12 14 -12 10 1 15 -2 12 -7 -3 -5 -1 -9 4 -9 4 0 23
-14 41 -32 17 -17 44 -37 58 -45 29 -15 45 -17 23 -3 -8 5 -10 10 -4 10 15 0
36 -25 27 -33 -3 -4 1 -8 10 -8 10 -1 22 -3 27 -4 6 -1 15 -3 20 -4 6 0 10 -8
10 -17 0 -8 5 -12 11 -9 5 4 18 0 27 -8 9 -8 27 -18 39 -21 13 -4 23 -12 23
-17 0 -5 5 -9 11 -9 6 0 23 -9 39 -20 15 -11 30 -17 34 -13 3 3 15 -4 25 -16
11 -13 24 -20 29 -17 5 3 18 -3 30 -14 13 -13 22 -15 24 -8 3 7 13 3 26 -10
13 -13 28 -20 34 -16 7 4 8 3 4 -4 -4 -7 -2 -12 3 -12 6 0 11 5 11 12 0 6 6 3
14 -7 7 -10 26 -20 42 -22 16 -3 36 -11 45 -19 8 -8 23 -14 33 -14 9 0 26 -9
38 -20 12 -10 24 -17 28 -15 4 3 13 -2 20 -10 6 -7 18 -11 25 -8 8 3 29 -4 48
-16 18 -11 47 -23 65 -26 18 -3 51 -13 73 -22 54 -21 333 -21 397 1 20 7 21
10 10 23 -12 15 -11 15 9 3 12 -8 20 -17 17 -21 -2 -4 7 -2 19 4 l24 11 -24
22 c-15 14 -35 21 -53 20 -16 -1 -27 1 -24 5 4 7 -67 38 -98 43 -9 1 -31 9
-50 18 -80 40 -145 68 -164 71 -28 6 -57 19 -72 34 -8 7 -17 11 -22 8 -5 -3
-11 -1 -15 5 -3 5 -13 10 -22 10 -8 0 -29 10 -46 22 -18 13 -33 22 -34 21 -4
-3 -29 6 -83 29 -25 11 -54 21 -65 24 -11 2 -21 8 -23 14 -2 6 -8 8 -13 4 -5
-3 -9 0 -9 7 0 7 -10 9 -25 7 -13 -3 -22 -1 -19 3 3 5 -3 9 -14 9 -10 0 -29 9
-42 20 -13 11 -28 20 -35 20 -7 0 -20 9 -30 20 -10 11 -26 20 -36 20 -9 0 -19
4 -21 9 -1 5 -21 18 -43 29 -102 51 -125 65 -125 73 0 4 -6 6 -13 3 -7 -2 -23
3 -34 13 -35 29 -61 46 -65 42 -3 -2 -12 3 -21 11 -30 28 -46 40 -51 40 -6 0
-37 24 -62 48 -8 7 -14 10 -14 6 0 -4 -8 3 -19 14 -10 12 -24 22 -30 22 -6 0
-14 7 -17 15 -4 8 -11 15 -18 15 -6 0 -25 13 -42 29 -21 20 -35 26 -45 21 -11
-6 -15 -3 -16 12 -1 11 -12 28 -25 39 -13 10 -27 22 -33 27 -5 5 -28 30 -50
58 -22 27 -57 66 -77 86 -21 21 -38 41 -38 45 0 3 -17 21 -37 40 -21 18 -35
33 -30 33 7 0 -29 44 -80 97 -13 13 -22 27 -21 31 1 4 -12 29 -30 56 -18 28
-32 58 -32 67 0 10 -5 19 -10 21 -6 2 -12 14 -15 28 -7 37 -27 70 -38 63 -6
-3 -7 -1 -3 5 7 11 -40 111 -59 124 -6 5 -4 8 5 8 10 0 11 3 4 8 -15 9 -54 99
-54 123 0 11 -4 19 -10 19 -5 0 -10 9 -10 21 0 13 -4 18 -12 13 -7 -5 -8 -3
-3 5 4 8 -1 24 -12 39 -10 15 -18 39 -17 55 2 15 -1 27 -7 27 -5 0 -9 6 -9 14
0 7 -7 19 -15 26 -9 7 -13 20 -10 28 3 8 -6 37 -19 66 -13 28 -27 59 -30 69
-3 11 -11 15 -18 11 -10 -5 -10 -4 -1 6 9 10 9 19 -2 40 -8 15 -11 30 -8 34 4
3 1 6 -6 6 -7 0 -9 4 -6 10 3 5 -1 24 -9 42 -8 18 -17 51 -19 73 -1 22 -6 46
-11 53 -4 6 -3 19 2 29 7 12 5 24 -6 41 -9 14 -18 45 -19 71 -2 25 -6 53 -10
61 -5 13 -10 66 -16 148 0 12 -5 22 -9 22 -4 0 -8 12 -8 26 0 14 4 22 10 19
11 -7 3 23 -11 41 -5 6 -6 13 -3 17 10 10 11 81 1 101 -7 13 -6 16 3 11 9 -6
9 -3 1 13 -16 30 -20 84 -9 106 8 15 7 18 -6 13 -8 -3 -18 -1 -22 5 -4 7 -3 8
4 4 8 -5 12 1 13 16 0 13 2 31 4 41 2 9 -2 17 -8 17 -7 0 -5 5 3 10 13 9 13
10 0 10 -12 1 -11 3 3 11 14 8 16 14 7 24 -7 8 -9 18 -7 22 3 5 2 27 -3 51 -5
28 -4 42 3 42 6 0 2 7 -9 15 -10 8 -14 15 -7 15 6 0 12 8 12 18 2 89 4 118 11
127 9 13 7 96 -3 112 -4 6 -1 14 5 16 10 4 9 6 -1 6 -10 1 -11 4 -3 14 6 7 12
44 14 81 1 37 6 70 10 73 5 2 6 9 2 14 -11 18 -15 61 -6 73 5 6 9 23 8 39 -1
15 2 27 7 27 5 0 7 7 4 15 -4 8 -2 17 3 20 5 3 8 19 6 35 -2 16 1 27 5 24 8
-5 14 18 10 39 -1 4 6 21 15 38 8 17 13 37 10 45 -3 8 -1 14 4 14 5 0 7 7 4
15 -4 8 -2 15 2 15 5 0 10 10 11 23 5 48 8 62 16 68 5 3 10 23 11 44 2 20 9
41 16 45 9 5 11 19 7 39 -5 23 -3 33 8 37 8 4 12 10 9 15 -3 5 0 9 6 9 6 0 8
5 5 10 -3 6 -1 10 6 10 7 0 9 10 7 25 -3 13 -2 23 2 20 10 -6 37 29 32 43 -2
7 1 12 7 12 6 0 11 15 11 33 1 33 22 72 33 60 4 -3 7 4 7 16 0 13 8 35 19 49
10 15 21 40 25 55 4 15 11 25 16 22 6 -3 10 3 10 14 0 11 7 26 15 35 8 8 15
22 15 32 0 9 7 22 15 28 8 6 16 24 18 40 2 16 11 34 20 41 9 6 14 15 10 18 -3
4 -1 7 5 7 7 0 12 8 12 19 0 10 15 34 34 54 18 20 31 38 28 41 -2 3 3 8 12 12
9 3 16 12 16 20 0 7 9 22 21 33 12 11 19 28 17 42 -2 15 2 23 10 22 6 -2 12 1
12 7 0 5 12 16 28 24 15 8 23 15 19 16 -5 0 1 14 13 30 12 17 18 30 15 30 -4
0 0 7 9 15 8 8 20 15 26 15 6 0 9 4 6 8 -3 5 4 18 14 30 11 12 20 25 20 29 0
5 13 19 29 32 16 13 27 30 24 36 -2 7 3 15 11 18 9 4 16 14 16 22 0 10 5 13
13 9 7 -5 6 0 -3 11 -9 11 -10 16 -2 11 7 -4 12 -2 12 5 0 16 31 38 54 39 15
0 17 5 12 32 -3 17 -4 29 -1 26 6 -5 32 14 76 55 11 10 17 22 14 27 -4 6 1 7
11 3 11 -4 15 -2 11 4 -4 5 1 19 9 29 9 10 12 13 8 5 -5 -9 -3 -12 5 -7 7 4 9
17 6 29 -5 17 -4 19 4 7 9 -13 13 -12 31 8 11 12 18 22 15 22 -3 0 0 6 7 14 7
8 16 12 21 9 4 -2 7 0 7 5 0 14 180 197 191 194 5 -1 8 1 7 6 -5 12 110 123
148 144 45 24 86 68 80 84 -3 8 0 11 8 8 8 -3 20 4 28 15 8 12 18 18 21 14 4
-3 7 -1 7 5 0 7 6 12 14 12 8 0 21 8 28 18 7 9 20 18 28 20 8 2 17 8 18 13 2
5 8 7 13 3 5 -3 9 2 9 10 0 8 8 17 18 20 10 4 27 14 38 24 10 10 45 32 76 50
31 18 68 47 82 63 15 17 26 27 26 24 0 -4 7 -2 15 5 8 6 18 9 23 6 5 -3 17 3
27 14 10 11 21 17 25 15 4 -3 11 2 14 11 3 8 10 12 16 9 5 -3 10 -2 10 4 0 5
16 15 35 21 19 6 35 16 35 21 0 5 12 9 27 9 14 0 24 3 20 6 -8 9 18 34 35 34
23 0 129 56 121 64 -5 4 -1 6 7 4 8 -2 18 -7 22 -13 5 -6 8 -5 8 3 0 6 7 12
15 12 8 0 15 5 15 10 0 6 9 10 21 10 12 0 58 18 104 40 46 22 90 40 99 40 9 0
16 4 16 9 0 10 45 23 95 28 49 5 55 6 55 13 0 3 10 6 22 7 12 1 40 16 64 33
23 16 51 30 61 30 11 0 23 3 27 7 8 8 34 15 61 14 10 0 24 4 30 9 10 8 54 20
83 22 6 1 12 5 12 10 0 4 3 7 8 6 16 -4 102 14 107 23 4 5 12 6 18 2 17 -11
29 -11 50 0 11 5 40 10 66 11 26 2 54 7 61 11 8 5 39 9 69 10 31 0 62 4 70 9
8 5 16 3 22 -5 7 -12 9 -12 9 0 0 10 3 11 14 2 10 -8 16 -9 21 -1 4 6 21 10
38 10 39 -1 82 6 96 15 6 3 11 1 11 -5 0 -6 5 -8 11 -4 6 3 66 8 133 10 66 2
140 5 164 7 23 2 48 0 54 -4 7 -4 20 -3 30 2 10 5 18 6 18 1 0 -5 17 -8 38 -7
20 1 42 -1 47 -4 6 -3 26 -7 45 -8 19 -1 67 -5 105 -8 39 -3 93 -7 122 -8 28
-1 55 -5 58 -9 4 -4 17 -3 29 2 13 4 29 4 37 0 8 -6 16 -4 21 3 6 9 8 9 8 1 0
-7 14 -11 35 -10 21 1 37 -4 40 -12 3 -9 10 -10 24 -3 10 6 21 8 24 4 4 -3 26
-8 49 -10 24 -2 59 -9 78 -16 19 -6 39 -10 43 -9 4 1 18 -3 30 -10 12 -6 63
-15 112 -20 115 -10 139 -13 153 -22 7 -4 12 -3 12 3 0 7 9 7 28 0 15 -6 43
-13 62 -15 19 -3 37 -9 38 -14 2 -6 17 -10 33 -10 27 0 67 -16 79 -32 6 -8 30
-6 46 5 7 4 15 0 18 -9 3 -8 10 -12 16 -9 5 3 10 1 10 -4 0 -6 3 -10 8 -9 4 1
20 -4 35 -10 16 -7 34 -12 42 -12 8 0 17 -4 20 -10 3 -5 21 -10 40 -10 20 0
35 -6 39 -15 3 -8 11 -12 19 -9 7 2 21 -4 31 -15 9 -10 25 -17 35 -14 10 2 42
-10 71 -28 29 -18 62 -34 74 -35 12 -1 25 -3 29 -3 5 -1 5 -7 1 -13 -5 -10 -4
-10 5 -2 9 9 19 9 37 0 13 -6 24 -14 24 -18 0 -4 7 -5 15 -1 10 3 15 0 13 -8
-2 -9 5 -13 20 -12 12 2 22 -1 22 -7 0 -5 13 -17 29 -26 17 -10 27 -22 24 -28
-4 -5 1 -7 10 -3 9 3 19 2 22 -3 3 -5 13 -6 22 -3 11 4 14 2 9 -5 -4 -6 3 -16
16 -23 13 -7 27 -18 31 -25 4 -8 14 -14 21 -14 8 0 19 -6 25 -14 7 -8 26 -18
42 -21 16 -4 29 -13 29 -20 0 -9 8 -12 26 -9 14 3 23 1 20 -4 -3 -5 10 -17 29
-28 18 -10 31 -22 28 -27 -3 -6 -1 -7 4 -4 6 4 16 0 23 -8 7 -8 16 -13 20 -10
4 3 13 -2 20 -10 7 -8 19 -15 27 -15 7 0 16 -6 19 -14 3 -8 14 -13 25 -11 10
2 18 0 16 -5 -4 -16 73 -78 86 -68 4 4 57 -53 57 -62 0 -4 11 -7 25 -6 13 2
23 0 20 -4 -6 -9 51 -70 66 -70 14 0 59 -46 59 -61 0 -5 5 -9 11 -9 5 0 8 -4
4 -9 -3 -5 4 -12 15 -16 11 -3 20 -10 20 -14 0 -12 90 -145 104 -153 6 -4 7
-8 2 -8 -6 0 -1 -7 10 -16 10 -8 12 -12 4 -8 -11 6 -10 2 3 -13 9 -11 17 -25
17 -32 0 -7 5 -9 10 -6 6 3 10 -1 10 -9 0 -8 9 -21 20 -29 11 -8 17 -17 13
-21 -4 -4 7 -20 24 -35 18 -16 30 -31 26 -35 -3 -3 -2 -6 4 -6 6 0 16 -13 23
-30 7 -16 17 -30 22 -30 5 0 6 -4 3 -10 -6 -9 8 -14 27 -11 5 0 8 -2 7 -7 -3
-17 14 -51 22 -46 5 3 9 -6 9 -20 0 -14 4 -26 9 -26 5 0 16 -17 25 -37 9 -21
28 -58 41 -82 17 -31 22 -47 14 -52 -7 -4 -3 -12 12 -23 13 -9 20 -16 15 -16
-5 0 -3 -7 4 -15 7 -8 9 -15 6 -15 -4 0 3 -10 14 -22 12 -13 19 -31 17 -40 -3
-9 1 -19 9 -22 8 -3 14 -13 14 -21 0 -9 4 -13 10 -10 6 3 10 -2 10 -13 0 -10
9 -28 19 -39 11 -12 18 -23 15 -26 -8 -8 16 -58 25 -53 5 3 15 -2 22 -11 12
-14 12 -16 0 -8 -11 6 -12 2 -7 -21 4 -16 12 -31 17 -35 5 -3 7 -13 3 -22 -4
-11 -1 -17 7 -17 11 0 11 -2 -1 -10 -13 -8 -13 -10 1 -15 8 -3 14 -17 13 -33
0 -14 5 -33 13 -40 7 -7 13 -22 13 -32 0 -10 7 -21 16 -24 9 -3 14 -12 11 -19
-2 -6 4 -24 14 -38 10 -14 16 -29 12 -33 -3 -3 -1 -6 6 -6 7 0 9 -4 6 -10 -3
-5 -2 -10 3 -10 5 0 10 -11 10 -24 0 -14 7 -32 16 -41 9 -9 14 -21 11 -26 -4
-5 2 -9 12 -9 14 -1 13 -4 -7 -15 -24 -14 -24 -14 -3 -15 17 0 21 -4 16 -17
-4 -10 -2 -14 5 -9 7 4 10 -1 7 -14 -3 -14 1 -20 13 -20 12 0 13 -3 5 -8 -13
-8 -12 -29 1 -51 5 -7 9 -34 9 -58 0 -28 3 -40 8 -31 6 8 9 2 9 -19 0 -23 5
-33 15 -33 8 0 15 -4 15 -10 0 -5 -3 -10 -8 -10 -9 0 -7 -64 2 -79 4 -5 2 -12
-4 -16 -5 -3 -10 -11 -10 -16 0 -6 5 -7 10 -4 9 6 15 -22 11 -52 -1 -7 3 -13
10 -13 7 0 9 -10 7 -25 -3 -14 -1 -25 6 -25 6 0 4 -4 -4 -10 -12 -8 -12 -11 3
-27 14 -17 15 -22 2 -46 -12 -24 -12 -28 6 -41 17 -11 18 -16 7 -28 -19 -20
-20 -38 -3 -38 14 0 21 -29 15 -55 -18 -73 -18 -73 0 -70 9 2 17 -3 17 -11 0
-8 -3 -14 -7 -14 -3 0 -7 -22 -9 -50 -1 -29 2 -50 8 -50 7 0 7 -8 2 -22 -10
-27 -9 -123 1 -133 4 -4 3 -16 -3 -26 -7 -14 -6 -21 4 -24 8 -4 12 -20 11 -45
-1 -27 2 -40 11 -40 14 0 15 -17 2 -37 -5 -7 -4 -13 0 -13 5 0 9 -9 9 -20 0
-11 -3 -20 -7 -20 -4 0 -2 -16 4 -36 10 -32 9 -38 -8 -50 -10 -8 -13 -14 -7
-14 7 0 12 -7 12 -16 0 -8 5 -12 11 -8 8 4 7 0 -1 -15 -6 -12 -13 -34 -15 -49
-2 -15 -7 -42 -11 -61 -5 -25 -4 -32 4 -27 18 11 14 -5 -5 -27 -11 -13 -12
-17 -4 -12 11 6 13 4 8 -9 -4 -10 -3 -15 3 -11 6 3 10 -3 10 -14 0 -12 -5 -21
-11 -21 -8 0 -7 -5 1 -15 11 -13 9 -23 -9 -55 -14 -25 -18 -41 -11 -45 8 -5 8
-11 1 -19 -7 -9 -7 -17 2 -26 9 -10 9 -11 0 -6 -7 4 -13 3 -13 -3 0 -5 5 -11
12 -13 8 -3 6 -21 -10 -64 -12 -32 -21 -68 -21 -79 1 -23 -8 -65 -16 -73 -2
-3 3 -11 13 -19 9 -7 13 -13 7 -12 -22 3 -26 -2 -12 -15 8 -9 12 -26 9 -46 -3
-19 -8 -27 -12 -20 -7 11 -46 -106 -41 -124 1 -4 -2 -13 -7 -20 -4 -6 -8 -18
-7 -26 1 -8 -2 -22 -6 -30 -7 -15 -21 -90 -22 -117 0 -7 -5 -13 -10 -13 -5 0
-7 -7 -3 -15 3 -8 1 -15 -5 -15 -6 0 -9 -8 -8 -17 2 -10 0 -28 -5 -40 -13 -41
-15 -67 -6 -78 7 -9 5 -17 -7 -26 -16 -13 -17 -12 -4 3 9 12 10 18 2 18 -6 0
-12 -4 -12 -10 -1 -5 -2 -16 -3 -22 -1 -7 3 -16 9 -20 5 -4 0 -8 -12 -8 -20 0
-25 -8 -22 -36 0 -3 -7 -12 -17 -18 -10 -8 -15 -20 -11 -29 3 -8 -1 -21 -9
-28 -8 -7 -13 -18 -10 -26 3 -8 2 -12 -3 -9 -12 8 -34 -21 -26 -34 4 -6 1 -9
-7 -8 -7 2 -12 -5 -12 -14 1 -10 -2 -16 -6 -13 -16 10 -20 -29 -5 -45 12 -14
13 -20 4 -26 -7 -4 -10 -3 -5 4 3 6 2 13 -4 17 -5 3 -10 -3 -10 -14 0 -11 -9
-22 -20 -26 -18 -6 -24 -17 -21 -37 0 -5 -4 -8 -10 -8 -5 0 -7 -5 -3 -12 5 -7
3 -8 -5 -4 -8 5 -14 0 -18 -13 -3 -12 -9 -21 -14 -21 -5 0 -9 -5 -9 -11 0 -6
-9 -23 -19 -37 -10 -15 -19 -30 -20 -34 -3 -20 -37 -84 -48 -91 -7 -4 -13 -13
-13 -18 0 -6 -7 -17 -15 -26 -8 -8 -12 -19 -9 -25 4 -7 2 -8 -5 -4 -7 4 -15
-2 -20 -16 -4 -13 -12 -21 -17 -18 -5 2 -15 -8 -22 -23 -7 -15 -17 -27 -23
-27 -5 0 -8 -3 -8 -7 1 -5 0 -11 -1 -15 -1 -5 -3 -14 -4 -20 -1 -7 -11 -12
-24 -12 -12 1 -22 -4 -22 -12 0 -8 -5 -14 -10 -14 -6 0 -9 -3 -9 -7 3 -19 -2
-33 -11 -33 -13 0 -50 -37 -44 -43 3 -3 -3 -4 -13 -3 -10 0 -17 -5 -15 -11 1
-7 -4 -13 -10 -13 -7 0 -24 -16 -38 -35 -14 -19 -30 -35 -36 -35 -11 0 -58
-50 -47 -50 4 0 -15 -15 -40 -33 -26 -19 -44 -37 -40 -40 3 -4 -1 -7 -11 -7
-9 0 -14 -5 -11 -10 3 -5 -1 -10 -10 -10 -9 0 -27 -11 -41 -25 -14 -14 -29
-25 -34 -25 -6 0 -10 -5 -10 -11 0 -5 -4 -7 -10 -4 -5 3 -10 1 -10 -4 0 -6 -6
-11 -14 -11 -18 0 -58 -49 -50 -61 3 -5 -2 -6 -10 -3 -10 4 -16 1 -16 -7 0 -7
-3 -10 -6 -6 -6 5 -29 -11 -63 -44 -9 -9 -31 -24 -48 -35 -18 -10 -33 -22 -33
-26 0 -4 -6 -8 -14 -8 -8 0 -21 -8 -28 -19 -7 -10 -21 -17 -30 -15 -10 1 -20
-6 -23 -17 -4 -11 -10 -17 -15 -14 -5 3 -13 -2 -18 -11 -5 -9 -13 -16 -18 -16
-17 -1 -44 -25 -36 -34 4 -4 0 -3 -9 4 -14 10 -18 10 -23 -3 -3 -9 -11 -13
-18 -9 -8 5 -9 2 -5 -9 3 -10 2 -17 -2 -17 -10 0 -9 -26 2 -36 4 -4 7 1 7 12
0 16 2 17 10 4 9 -13 11 -13 19 -1 5 8 24 15 43 16 30 1 61 10 186 53 23 8 42
19 42 24 0 5 4 7 9 4 5 -4 31 4 58 16 26 12 50 22 53 23 3 0 15 6 26 13 12 6
24 9 27 5 4 -3 9 2 13 11 3 9 15 16 25 16 10 0 19 5 19 11 0 5 4 8 8 5 10 -6
64 28 57 36 -3 2 1 5 8 5 17 0 67 33 67 45 0 5 4 7 9 4 5 -3 21 6 35 19 15 14
31 25 36 25 6 0 15 9 22 19 6 10 17 17 24 14 8 -3 16 6 20 21 3 14 11 26 18
26 6 0 33 23 60 50 27 28 53 50 58 50 4 0 8 11 8 25 0 16 4 23 13 19 16 -6 59
30 49 41 -4 5 -2 5 4 2 12 -7 74 43 74 60 0 6 25 35 55 66 30 30 55 61 55 67
0 7 10 21 21 31 13 11 19 25 15 34 -3 9 -2 13 3 10 5 -3 13 4 16 16 4 12 12
18 21 15 12 -5 40 30 36 44 -1 3 4 12 12 22 8 9 12 19 9 22 -3 3 2 8 11 12 9
3 14 10 11 14 -3 5 1 15 9 23 8 8 12 17 9 21 -4 3 -1 6 5 6 7 0 12 7 12 15 0
8 4 15 9 15 6 0 8 9 6 20 -2 11 3 27 11 35 9 8 12 15 9 15 -4 0 8 14 26 31 18
17 34 37 35 44 3 22 36 85 44 85 5 0 7 11 6 24 -2 14 3 27 10 30 8 3 14 12 14
21 0 8 5 15 10 15 6 0 10 7 10 15 0 8 4 15 9 15 9 0 22 28 27 58 1 7 10 24 19
38 9 14 14 32 11 40 -3 8 -1 14 4 14 6 0 10 9 10 20 0 11 6 20 14 20 9 0 12 8
8 25 -2 14 2 33 9 42 8 9 15 32 15 52 3 66 4 72 12 67 5 -3 9 0 9 7 1 7 4 26
7 42 3 17 8 45 11 64 3 19 9 39 15 46 5 6 8 21 5 33 -2 12 1 24 6 27 5 4 7 11
4 16 -4 5 -2 9 2 9 5 0 9 8 10 18 6 69 12 101 22 125 8 20 8 26 0 21 -7 -4 -7
1 1 16 6 12 10 31 7 41 -3 10 -1 19 3 19 5 0 9 8 9 18 0 34 8 72 19 85 9 10 8
18 -2 32 -11 15 -11 23 0 44 17 33 18 58 2 64 -10 4 -10 6 0 6 7 1 10 6 7 11
-3 6 -1 10 5 10 6 0 8 5 5 10 -4 6 -2 17 4 24 12 15 11 166 -1 183 -6 7 -3 13
10 17 12 4 18 14 16 29 -1 12 -3 22 -4 22 -1 0 -4 16 -7 35 -2 19 -9 41 -15
47 -7 9 -7 13 1 13 6 0 11 5 11 11 0 5 -6 7 -12 4 -7 -4 -5 0 5 8 10 8 15 17
10 20 -4 3 -7 27 -7 54 1 26 -4 54 -10 62 -8 11 -8 13 1 8 9 -6 11 21 9 112
-2 66 -7 125 -11 132 -5 6 -10 39 -12 73 -7 108 -8 114 -17 109 -4 -3 -5 7 -2
23 10 46 10 120 1 135 -12 18 -14 49 -3 43 4 -3 8 0 8 5 0 6 -8 11 -17 11 -11
0 -14 3 -8 8 12 8 12 71 0 122 -5 19 -8 41 -6 47 1 7 -3 22 -10 34 -17 33 -29
80 -18 74 5 -4 9 1 9 9 0 8 -8 20 -17 25 -13 7 -14 10 -4 11 11 0 10 5 -4 20
-10 11 -14 20 -9 20 5 0 3 4 -5 9 -11 7 -12 13 -4 23 6 7 9 21 7 31 -7 32 -12
52 -14 52 -1 0 -3 9 -5 20 -11 57 -20 82 -37 108 -11 15 -16 27 -12 27 3 0 1
6 -5 14 -9 11 -9 15 1 19 8 3 5 6 -6 6 -11 1 -16 4 -13 8 4 3 0 17 -8 29 -9
15 -11 25 -5 29 6 4 8 11 4 16 -3 5 -10 6 -16 3 -7 -4 -8 -2 -4 4 8 13 -23 72
-37 72 -4 0 -5 4 -2 10 6 10 -18 53 -26 46 -2 -2 -4 9 -5 25 -1 17 -7 36 -14
42 -10 9 -11 9 -5 -2 6 -10 4 -12 -4 -7 -9 6 -9 11 0 22 11 13 5 19 -16 14 -5
-1 -7 1 -3 5 11 12 -13 67 -28 61 -8 -3 -11 0 -7 10 3 7 0 14 -7 14 -9 0 -11
11 -6 40 4 28 3 40 -6 40 -6 0 -8 3 -5 7 4 3 0 11 -7 17 -17 13 -61 90 -47 82
14 -9 -17 50 -34 64 -8 7 -15 17 -15 24 0 10 -43 105 -61 136 -9 14 -49 97
-70 145 -12 27 -29 54 -56 88 -13 16 -23 35 -23 42 0 8 -16 30 -35 50 -20 19
-36 38 -37 42 -1 12 -31 57 -42 65 -6 4 -14 4 -20 1 -5 -3 -6 -1 -2 5 4 7 1
12 -8 12 -9 0 -16 7 -16 16 0 9 -11 27 -24 39 -14 13 -22 25 -20 28 3 3 0 15
-6 27 -10 18 -14 20 -21 9 -6 -10 -8 -9 -7 6 1 29 -19 75 -37 81 -8 4 -15 12
-15 20 0 8 -4 14 -9 14 -5 0 -11 10 -14 23 -7 24 -71 97 -87 97 -5 0 -10 7
-10 15 0 8 -4 15 -10 15 -5 0 -10 4 -10 10 0 16 -101 111 -111 104 -5 -3 -9 2
-9 10 0 8 -9 18 -20 21 -11 3 -20 11 -20 16 0 5 -9 9 -21 9 -11 0 -18 4 -15 8
9 15 -30 47 -96 81 -16 8 -28 18 -28 23 0 4 -7 8 -15 8 -8 0 -15 5 -15 10 0 6
-7 10 -15 10 -8 0 -15 5 -15 10 0 6 -7 10 -15 10 -8 0 -15 4 -15 8 0 5 -18 17
-40 28 -22 10 -40 22 -40 25 0 4 -11 10 -25 13 -14 4 -34 14 -45 24 -36 33
-49 42 -60 42 -6 0 -18 7 -27 15 -8 9 -28 19 -44 22 -16 3 -27 9 -24 13 2 4
-19 20 -48 35 -29 16 -55 33 -58 38 -4 5 -12 6 -18 3 -6 -4 -11 -1 -11 8 0 8
-13 21 -30 30 -16 8 -30 10 -30 5 0 -5 -9 -4 -19 3 -11 7 -17 16 -15 20 3 4
-6 8 -20 8 -14 0 -26 5 -26 10 0 6 -7 10 -15 10 -8 0 -15 5 -15 10 0 6 -8 10
-18 10 -22 0 -72 22 -72 33 0 4 -11 7 -24 7 -13 0 -29 7 -36 15 -7 8 -15 13
-19 10 -4 -2 -20 5 -37 16 -16 10 -39 19 -51 19 -13 0 -23 5 -23 10 0 6 -9 10
-21 10 -13 0 -18 4 -13 12 4 7 3 8 -5 4 -6 -4 -18 -2 -26 4 -8 7 -15 10 -15 6
0 -3 -17 1 -37 10 -21 8 -49 18 -63 21 -35 7 -43 9 -60 16 -37 16 -100 36
-100 32 0 -3 -9 4 -20 15 -11 11 -32 20 -46 20 -14 0 -34 4 -44 10 -10 5 -40
12 -68 14 -27 2 -59 9 -71 16 -12 6 -31 8 -41 5 -11 -4 -25 -3 -32 2 -7 4 -34
9 -60 10 -27 0 -50 2 -53 3 -3 2 -9 4 -15 5 -5 1 -11 3 -12 4 -6 5 -55 13 -83
15 -16 0 -36 7 -43 14 -7 6 -19 12 -25 13 -14 0 -71 7 -107 13 -67 10 -121 16
-180 21 -36 2 -65 5 -65 5 0 1 -40 4 -210 13 -28 2 -56 6 -62 10 -6 4 -15 3
-18 -3 -5 -8 -11 -7 -21 1 -8 6 -14 8 -14 3 0 -5 -5 -2 -10 6 -7 11 -10 11
-10 2 0 -8 -5 -10 -12 -6 -13 8 -257 12 -264 4z m4290 -5106 c3 -8 2 -12 -4
-9 -6 3 -10 10 -10 16 0 14 7 11 14 -7z"/>
<path d="M3218 7811 c-24 -16 -50 -38 -58 -51 -14 -20 -36 -47 -74 -90 -24
-28 -76 -109 -76 -119 0 -5 -10 -22 -23 -38 -31 -37 -108 -193 -101 -204 3 -5
1 -9 -3 -9 -5 0 -10 -12 -11 -27 -1 -14 -8 -34 -16 -42 -7 -9 -11 -22 -8 -30
3 -8 0 -11 -6 -7 -7 4 -9 -1 -6 -16 11 -44 6 -67 -16 -85 -8 -6 -12 -15 -8
-18 4 -4 1 -20 -7 -36 -18 -34 -19 -52 -2 -44 6 4 3 -1 -7 -9 -11 -9 -15 -16
-10 -16 6 0 11 -7 11 -15 0 -8 -4 -12 -8 -10 -4 3 -9 -2 -13 -10 -3 -8 -1 -15
5 -15 6 0 6 -7 -1 -19 -12 -23 -13 -54 -2 -47 4 2 8 -4 8 -14 0 -14 -3 -16
-13 -8 -8 6 -16 8 -20 4 -3 -3 0 -6 7 -6 7 0 11 -3 7 -6 -3 -4 0 -13 8 -21 13
-12 12 -20 -7 -56 -12 -25 -15 -37 -7 -30 12 9 14 1 13 -52 0 -39 -6 -70 -15
-81 -9 -11 -9 -15 -1 -10 11 6 17 -11 13 -36 0 -5 3 -8 8 -8 7 0 13 -58 13
-127 0 -12 7 -24 15 -27 8 -3 11 -10 8 -16 -3 -5 -1 -10 5 -10 6 0 8 -4 5 -10
-5 -8 19 -64 35 -80 13 -13 30 -51 30 -67 0 -9 3 -13 7 -10 3 4 22 -19 41 -51
19 -31 37 -59 41 -62 12 -9 71 -88 71 -95 0 -8 34 -47 105 -119 27 -28 49 -54
48 -58 -1 -3 4 -9 13 -12 10 -4 13 -2 8 7 -6 9 -5 9 8 0 8 -7 19 -9 23 -5 5 4
5 2 2 -4 -4 -6 2 -19 13 -29 29 -26 25 -36 -12 -30 -20 4 -34 1 -39 -7 -7 -10
-9 -11 -9 0 0 8 -12 12 -32 11 -18 0 -59 2 -91 5 -42 5 -63 3 -75 -6 -13 -11
-14 -11 -7 1 6 11 4 13 -11 7 -10 -5 -47 -10 -82 -12 -63 -3 -143 -23 -178
-43 -37 -21 -124 -49 -124 -40 0 5 -10 3 -23 -6 -13 -8 -27 -12 -30 -8 -4 3
-7 1 -7 -5 0 -7 -9 -12 -19 -12 -11 0 -22 -4 -26 -10 -3 -5 -12 -7 -19 -4 -7
3 -20 -1 -27 -8 -8 -7 -22 -14 -31 -16 -36 -6 -177 -93 -220 -137 -25 -25 -53
-45 -62 -45 -9 0 -33 -17 -54 -37 -22 -21 -48 -45 -58 -54 -10 -8 -35 -35 -54
-59 -19 -24 -45 -54 -57 -67 -12 -12 -19 -23 -15 -23 3 0 -12 -19 -34 -42 -22
-24 -47 -52 -55 -62 -12 -17 -12 -19 1 -12 9 4 8 1 -2 -7 -10 -8 -18 -19 -18
-26 0 -6 -4 -11 -8 -11 -5 0 -14 -18 -21 -40 -6 -21 -16 -42 -21 -45 -11 -7
-51 -90 -49 -102 1 -4 0 -11 -1 -15 -1 -5 -3 -11 -4 -15 -7 -28 -19 -53 -25
-53 -4 0 -8 -6 -8 -12 0 -7 -4 -22 -9 -32 -5 -14 -4 -17 5 -12 9 6 9 2 -1 -15
-7 -13 -17 -27 -21 -30 -5 -3 -6 -23 -3 -43 4 -27 3 -35 -6 -30 -7 5 -9 2 -5
-8 3 -9 0 -21 -6 -28 -9 -10 -9 -11 3 -4 13 7 13 5 -1 -16 -8 -14 -15 -44 -14
-67 0 -23 -4 -39 -9 -36 -5 4 -7 -1 -3 -10 4 -10 1 -17 -5 -17 -8 0 -6 -6 4
-16 13 -14 14 -20 3 -41 -10 -19 -11 -30 -2 -44 6 -10 15 -15 20 -12 5 3 2 -6
-7 -19 -9 -14 -13 -28 -9 -31 3 -4 1 -7 -5 -7 -13 0 -12 -27 2 -49 7 -10 5
-12 -3 -6 -7 4 -5 -5 5 -21 11 -15 13 -25 7 -21 -8 5 -13 3 -13 -7 0 -9 5 -16
11 -16 5 0 7 -5 3 -12 -12 -20 -13 -58 -1 -58 7 0 5 -5 -3 -10 -13 -8 -13 -10
2 -10 9 0 20 -4 23 -10 3 -5 0 -7 -9 -4 -11 4 -13 0 -9 -15 3 -12 8 -21 12
-21 3 0 7 -26 8 -57 0 -39 4 -57 13 -55 6 1 9 -2 6 -7 -4 -5 -2 -12 4 -16 6
-4 7 -11 4 -17 -4 -6 1 -17 11 -25 11 -7 13 -13 7 -13 -9 0 -9 -5 0 -22 7 -13
18 -26 23 -30 6 -5 5 -8 -4 -8 -11 0 -11 -3 -1 -15 7 -8 10 -21 7 -30 -4 -8 2
-20 12 -27 20 -14 21 -17 21 -49 0 -11 5 -17 10 -14 9 5 15 -23 11 -47 0 -5 4
-8 9 -8 6 0 10 -6 10 -13 0 -7 9 -20 20 -30 11 -9 20 -22 20 -29 0 -18 46 -69
54 -61 4 4 4 0 1 -9 -3 -8 0 -22 8 -30 8 -8 18 -24 21 -36 4 -12 12 -22 17
-22 5 0 13 -8 16 -17 4 -9 14 -24 22 -33 9 -9 35 -36 58 -61 77 -81 161 -159
172 -159 6 0 11 -4 11 -10 0 -5 7 -10 15 -10 8 0 14 -5 12 -10 -1 -6 20 -23
48 -38 27 -15 54 -32 60 -38 5 -6 26 -17 45 -24 19 -7 42 -18 50 -25 40 -30
206 -98 220 -90 5 3 15 -1 23 -9 8 -8 33 -17 55 -20 23 -3 50 -9 60 -15 11 -6
22 -8 24 -5 3 2 18 -1 34 -7 61 -25 484 -29 523 -5 7 4 27 10 44 13 18 3 38
10 46 16 9 8 12 8 8 1 -3 -6 0 -11 8 -11 8 0 13 5 12 10 -1 5 12 11 28 12 17
1 40 7 51 13 12 6 25 8 29 4 3 -4 12 0 18 8 7 8 21 17 32 18 11 2 23 9 27 15
4 7 8 9 8 4 0 -4 15 -1 34 7 19 8 37 12 40 8 3 -3 6 2 6 12 0 9 5 14 10 11 6
-3 10 -1 10 5 0 6 4 9 9 5 5 -3 12 -1 16 5 4 6 10 8 14 6 4 -3 19 6 34 20 15
13 30 25 34 27 5 1 7 4 6 7 -1 3 10 7 24 8 31 2 55 20 46 35 -3 6 -1 7 5 3 7
-4 12 -2 12 4 0 6 4 9 9 6 5 -3 14 1 21 9 7 8 18 15 26 15 7 0 16 9 19 20 3
11 10 20 15 20 5 0 12 9 15 20 4 11 10 18 14 16 7 -5 85 44 89 57 1 4 2 12 2
18 0 5 4 8 9 5 5 -3 14 1 21 9 7 8 10 15 6 15 -3 0 2 8 12 18 9 11 20 17 25
15 6 -4 11 12 8 30 0 4 3 7 9 7 5 0 25 25 45 55 19 30 41 55 49 55 10 0 13 7
11 21 -3 12 -2 19 2 16 8 -9 32 24 33 44 0 8 9 25 20 37 12 12 18 22 14 22 -3
0 1 11 10 25 12 18 13 25 4 26 -7 0 -4 5 8 11 14 6 21 20 22 38 0 16 8 39 16
53 9 13 13 27 9 30 -3 4 -1 7 6 7 8 0 11 8 8 20 -3 10 0 18 5 17 6 -1 13 12
15 28 2 17 8 34 14 40 5 5 9 24 9 42 0 18 6 42 12 53 10 16 10 24 -1 41 -11
19 -11 21 1 16 18 -6 19 -5 23 123 2 58 8 117 14 132 6 17 6 28 0 30 -17 6
-19 46 -2 52 12 5 13 9 3 21 -7 8 -10 24 -7 35 3 12 -1 24 -11 30 -12 7 -13 9
-3 10 10 0 11 3 2 14 -16 20 16 54 54 57 59 4 65 1 61 -31 -2 -17 1 -30 8 -30
7 0 7 -3 1 -8 -5 -4 -10 -26 -10 -49 0 -22 -3 -39 -6 -37 -13 8 -4 -102 10
-116 9 -10 10 -15 2 -18 -6 -2 -11 -13 -11 -23 0 -11 -5 -29 -10 -40 -8 -13
-7 -25 0 -39 8 -15 8 -20 -2 -21 -7 0 -4 -4 7 -9 12 -5 14 -9 6 -9 -10 -1 -9
-6 5 -18 20 -19 33 -60 15 -48 -7 3 -8 0 -5 -9 3 -9 11 -16 18 -16 8 0 8 -2 0
-8 -15 -10 -14 -44 2 -38 7 3 10 -2 7 -15 -3 -11 0 -19 6 -19 7 0 10 -4 6 -9
-3 -5 1 -28 9 -50 8 -23 10 -44 5 -47 -5 -3 -2 -12 6 -21 9 -9 14 -22 11 -30
-3 -8 -2 -11 3 -8 5 3 12 1 16 -5 3 -5 0 -10 -7 -10 -8 -1 -6 -6 6 -15 10 -7
15 -18 12 -24 -8 -12 14 -61 27 -61 6 0 7 -3 4 -7 -4 -3 0 -17 9 -31 10 -15
11 -21 3 -17 -14 9 -5 -10 19 -37 8 -10 12 -18 7 -18 -4 0 3 -9 16 -21 13 -11
18 -18 11 -14 -14 7 29 -74 65 -121 12 -17 23 -34 23 -38 0 -4 11 -22 25 -41
19 -24 31 -31 46 -28 11 3 19 2 17 -3 -4 -13 37 -64 52 -64 6 0 9 -4 6 -8 -7
-12 23 -52 39 -52 8 0 21 -10 29 -22 9 -12 16 -19 16 -15 0 5 7 2 15 -6 8 -8
30 -25 50 -37 19 -12 35 -26 35 -31 0 -6 4 -8 8 -5 12 7 54 -23 47 -34 -3 -4
3 -7 12 -5 10 1 29 -4 42 -12 18 -12 22 -12 16 -2 -5 8 2 5 15 -6 14 -12 20
-14 15 -5 -8 13 -6 13 8 2 9 -8 21 -11 27 -7 5 3 10 2 10 -3 0 -4 14 -18 31
-31 24 -18 33 -20 45 -11 13 11 18 7 15 -12 0 -4 5 -5 13 -2 8 3 17 0 21 -5 3
-6 11 -9 16 -6 5 4 9 1 9 -5 0 -6 5 -8 10 -5 6 3 10 2 10 -3 0 -6 7 -13 16
-16 10 -4 13 -2 8 7 -5 8 -2 7 9 -2 9 -7 17 -11 17 -8 0 3 12 0 26 -8 14 -7
37 -11 51 -9 14 3 30 1 37 -4 6 -4 25 -8 43 -8 17 1 29 -2 27 -6 -3 -4 9 -5
26 -3 16 2 30 -1 30 -7 0 -5 7 -8 15 -4 8 3 15 1 15 -5 0 -6 6 -9 14 -6 8 3
17 3 20 -1 4 -3 14 -7 22 -8 11 -2 14 3 10 14 -5 15 -4 15 8 0 14 -20 31 -25
20 -7 -4 7 2 6 17 -2 13 -7 40 -13 59 -15 32 -2 85 -9 135 -18 11 -2 25 -1 30
3 17 9 34 10 65 1 17 -5 30 -4 32 1 4 13 66 20 74 8 4 -6 11 -6 19 1 10 8 16
7 24 -7 6 -10 11 -13 11 -7 0 7 7 15 16 18 8 3 12 2 9 -4 -7 -11 48 -14 59 -3
3 4 14 8 24 9 9 2 32 6 49 9 18 3 35 6 38 5 3 0 13 6 21 15 14 13 35 20 57 16
4 0 7 3 7 7 0 11 99 78 128 87 12 3 22 11 22 16 0 5 7 9 15 9 8 0 20 9 27 20
7 11 19 20 26 20 7 0 15 7 18 15 3 8 14 17 24 20 16 5 97 83 148 143 11 12 24
22 31 22 6 0 11 4 11 9 0 5 18 27 40 50 22 22 40 44 40 47 0 3 11 15 24 25 14
11 28 30 32 42 3 12 18 34 32 50 14 15 22 27 16 27 -5 0 -3 4 4 8 7 5 14 18
17 30 2 11 9 30 15 42 6 11 8 24 5 29 -3 5 1 15 8 23 8 7 12 18 10 24 -2 6 3
11 12 11 14 0 16 -4 14 -24 0 -4 8 -10 18 -14 17 -7 17 -8 0 -8 -17 -1 -17 -2
-1 -18 9 -9 12 -19 7 -20 -11 -4 -5 -53 7 -53 4 0 10 -9 13 -20 3 -11 1 -20
-4 -20 -5 0 -5 -10 0 -23 6 -14 5 -30 -1 -42 -9 -14 -8 -17 4 -13 17 7 21 -23
8 -58 -7 -16 -6 -24 1 -24 8 0 8 -4 2 -12 -13 -17 -13 -49 0 -41 6 4 7 -5 3
-23 -13 -56 -14 -84 -2 -84 7 0 8 -3 1 -8 -18 -12 -12 -54 8 -61 17 -6 17 -8
4 -19 -12 -10 -13 -20 -5 -49 8 -29 7 -38 -6 -45 -9 -5 -13 -15 -9 -25 4 -9 2
-14 -3 -11 -5 4 -10 -12 -11 -35 -1 -29 1 -36 9 -26 7 10 8 9 3 -6 -4 -11 -8
-27 -9 -35 -1 -9 -6 -22 -11 -30 -5 -8 -9 -26 -10 -40 -1 -14 -5 -31 -9 -38
-4 -7 -2 -12 5 -12 8 0 9 -4 0 -13 -8 -10 -7 -17 1 -25 9 -9 7 -16 -7 -32 -10
-11 -15 -20 -10 -20 4 0 3 -6 -2 -12 -11 -14 -25 -60 -29 -97 -2 -13 -6 -31
-10 -40 -9 -22 -15 -50 -17 -88 -1 -20 -7 -33 -16 -33 -11 0 -11 -3 -1 -16 11
-12 11 -15 -1 -12 -8 2 -15 -7 -17 -19 -2 -13 -7 -23 -11 -23 -8 0 -10 -9 -14
-55 -1 -14 -7 -25 -14 -25 -13 0 -12 -18 1 -39 6 -10 5 -12 -3 -7 -7 5 -13 -4
-17 -24 -4 -17 -15 -35 -25 -41 -11 -5 -19 -16 -19 -24 0 -7 -6 -16 -12 -19
-10 -5 -10 -7 0 -12 16 -7 -3 -34 -24 -34 -8 0 -14 -5 -14 -11 0 -5 6 -7 13
-3 9 6 9 5 0 -8 -7 -8 -9 -19 -5 -23 4 -5 0 -6 -9 -2 -13 4 -16 1 -11 -15 4
-16 2 -19 -9 -13 -12 8 -12 6 0 -8 8 -10 11 -20 7 -24 -3 -3 -6 -1 -6 6 0 7
-4 10 -9 7 -5 -3 -7 -16 -4 -29 4 -18 3 -19 -6 -7 -7 9 -11 10 -11 3 0 -19 20
-26 26 -9 3 9 10 16 16 16 5 0 6 -6 3 -12 -4 -7 1 -4 9 7 9 11 14 25 12 32 -3
7 1 10 9 6 9 -3 18 4 24 18 5 13 10 20 10 16 1 -4 7 -2 15 5 8 7 12 16 9 21
-2 4 4 10 14 14 23 9 43 28 43 42 0 6 3 10 8 9 10 -4 61 49 54 56 -3 3 0 6 6
6 10 0 82 99 82 114 0 4 4 12 10 19 48 59 59 75 53 81 -3 3 -2 6 4 6 6 0 13 9
16 19 4 15 1 18 -12 14 -9 -4 1 8 23 25 21 18 35 32 30 32 -5 0 -3 4 4 8 7 5
14 18 17 30 2 12 13 42 24 68 12 25 18 51 14 57 -3 6 -1 7 5 3 7 -4 12 -2 12
3 0 6 -6 11 -12 11 -9 1 -8 5 3 13 9 7 14 17 12 24 -2 6 1 14 6 18 6 3 11 11
11 16 0 6 -4 8 -9 5 -15 -10 -6 23 12 45 9 10 16 23 16 27 -4 24 2 72 9 69 4
-3 7 19 7 49 0 30 -4 54 -10 54 -5 0 -3 5 5 10 11 7 12 12 3 21 -9 9 -8 18 5
37 18 28 22 53 9 63 -4 3 -4 17 1 30 6 14 6 34 1 47 -6 15 -5 21 1 17 6 -3 10
-1 10 4 0 6 -4 11 -8 11 -7 0 -8 33 -2 50 7 16 3 37 -8 49 -8 8 -10 17 -5 20
15 10 15 81 1 98 -9 12 -9 15 0 9 17 -10 15 -1 -4 18 -13 14 -13 16 -1 16 12
0 13 7 7 34 -4 18 -11 39 -15 45 -3 7 -1 18 5 26 10 12 10 22 0 45 -7 16 -17
30 -22 30 -7 0 -6 5 1 13 6 8 8 16 5 19 -3 3 -7 25 -9 48 -2 24 -9 46 -16 50
-7 5 -10 21 -7 39 3 22 0 31 -9 31 -8 0 -11 5 -8 10 9 14 -4 52 -16 45 -5 -3
-6 1 -3 9 3 8 -1 28 -9 43 -8 15 -20 42 -27 58 -7 17 -16 38 -21 47 -5 10 -9
25 -9 33 0 8 -5 15 -11 15 -6 0 -9 7 -5 15 3 8 -2 18 -11 23 -10 6 -12 12 -5
16 13 8 -5 56 -21 56 -6 0 -8 3 -4 6 3 3 -5 24 -19 45 -13 21 -24 46 -24 55 0
9 -9 18 -19 21 -17 4 -26 20 -29 47 0 5 -7 13 -16 18 -9 5 -14 13 -11 17 2 5
-2 14 -10 21 -11 9 -15 9 -15 1 0 -7 -5 -9 -10 -6 -8 5 -7 11 0 20 9 11 6 21
-11 44 -13 17 -26 31 -30 31 -4 0 -10 8 -13 18 -4 10 -21 35 -39 55 -52 60
-82 101 -77 105 10 7 -31 23 -42 16 -7 -4 -8 -3 -4 4 8 14 -28 52 -51 52 -9 0
-14 3 -10 6 9 10 -20 35 -43 37 -11 1 -22 9 -25 18 -3 10 -13 23 -22 31 -14
11 -16 11 -9 -2 4 -8 -1 -5 -10 8 -9 12 -23 22 -32 22 -8 0 -28 13 -43 30 -16
16 -29 27 -29 24 0 -6 -68 44 -90 66 -8 9 -27 21 -42 28 -16 6 -28 15 -28 20
0 5 -19 15 -42 23 -24 7 -49 20 -57 27 -8 7 -22 11 -33 9 -10 -3 -16 -1 -12 4
3 5 -4 9 -15 9 -12 0 -21 4 -21 9 0 12 -79 43 -91 36 -5 -4 -9 -1 -9 5 0 6 -4
8 -10 5 -5 -3 -10 -2 -10 3 0 8 -13 15 -50 26 -3 1 -9 4 -15 7 -5 3 -29 11
-52 19 -24 7 -43 18 -43 23 0 6 -3 7 -7 4 -3 -4 -17 0 -30 8 -13 9 -27 13 -32
11 -5 -3 -14 1 -20 8 -7 8 -30 17 -52 21 -21 4 -39 11 -39 16 0 6 -4 7 -10 4
-5 -3 -10 -2 -10 3 0 5 -6 9 -12 10 -7 1 -24 3 -38 4 -14 2 -28 7 -31 12 -4 5
-18 9 -33 9 -15 0 -23 4 -19 10 4 6 0 8 -10 4 -9 -3 -19 -2 -22 3 -4 6 -19 10
-34 10 -15 0 -32 5 -39 12 -7 7 -12 8 -12 4 0 -5 -6 -4 -13 2 -7 6 -29 14 -48
16 -19 3 -45 8 -59 11 -14 4 -31 7 -37 7 -7 1 -13 6 -13 12 0 6 -5 4 -10 -4
-8 -12 -10 -12 -10 -1 0 8 -3 11 -7 8 -3 -4 -16 -1 -28 7 -12 8 -37 17 -56 19
-19 3 -34 6 -34 7 0 1 -12 3 -27 5 -15 2 -37 10 -49 19 -12 8 -28 12 -35 9 -8
-3 -14 -1 -14 4 0 5 -12 9 -27 8 -16 -1 -40 2 -55 6 -16 4 -28 4 -28 -1 0 -10
-40 -1 -57 13 -9 6 -13 5 -13 -4 0 -11 -2 -11 -8 -2 -4 7 -33 15 -63 18 -50 4
-90 11 -96 15 -3 3 -4 3 -58 14 -22 5 -59 9 -82 8 -24 0 -43 4 -43 9 0 5 -13
9 -28 9 -16 0 -31 3 -34 6 -4 3 -44 6 -90 7 -45 1 -86 6 -89 10 -10 14 -72 17
-88 4 -12 -10 -13 -9 -7 2 6 9 5 12 -5 9 -8 -3 -26 -1 -41 3 -19 5 -28 4 -28
-4 0 -8 -3 -7 -9 2 -7 11 -9 11 -14 0 -4 -10 -6 -10 -6 -1 -1 6 -8 12 -17 12
-8 0 -12 5 -9 10 3 6 1 10 -4 10 -6 0 -11 -6 -11 -12 0 -10 -2 -10 -9 0 -4 7
-18 14 -29 15 -12 1 -22 5 -22 10 0 4 -4 5 -10 2 -5 -3 -26 -2 -45 4 -26 7
-35 6 -35 -2 0 -8 -3 -8 -8 -2 -7 10 -27 17 -49 18 -7 0 -13 4 -13 8 0 4 -13
6 -30 5 -16 -1 -30 0 -30 3 0 3 -15 6 -32 6 -18 -1 -43 5 -55 13 -12 7 -39 15
-61 17 -21 1 -47 7 -58 13 -36 18 -87 31 -97 25 -6 -3 -7 -1 -3 5 4 7 0 12
-11 13 -29 2 -36 4 -78 22 -22 9 -44 17 -49 16 -5 0 -12 5 -17 13 -5 7 -12 13
-16 13 -4 1 -30 11 -58 23 -27 13 -62 28 -77 35 -16 6 -28 15 -28 19 0 5 -7 8
-16 8 -16 0 -76 38 -82 52 -2 4 -10 8 -17 8 -7 0 -16 7 -19 16 -4 9 -13 14
-22 10 -8 -3 -12 -2 -9 4 3 6 1 10 -4 10 -6 0 -11 7 -11 16 0 10 -6 14 -14 11
-9 -4 -17 3 -21 16 -3 12 -28 40 -55 62 -27 22 -49 44 -49 48 -1 11 -83 87
-93 87 -5 0 -8 8 -6 18 2 10 -2 16 -10 14 -8 -1 -11 2 -8 7 4 5 -2 14 -11 20
-10 6 -14 11 -9 11 4 0 -5 12 -22 28 -16 15 -33 38 -37 51 -4 14 -16 34 -26
45 -11 11 -19 27 -19 36 0 22 -35 92 -42 85 -3 -3 -3 6 -1 20 3 14 1 25 -4 25
-5 0 -9 17 -8 38 0 20 -4 43 -9 50 -5 8 -4 12 4 12 9 0 9 4 -1 17 -12 15 -12
16 1 8 9 -5 8 0 -4 13 -11 12 -14 22 -8 22 7 0 10 10 8 23 -2 12 1 30 6 40 5
9 5 17 1 17 -5 0 -7 26 -7 58 1 31 3 57 4 57 1 0 4 14 5 30 5 48 12 78 23 106
6 15 8 30 5 33 -3 3 -1 12 6 20 14 16 23 48 26 91 2 29 10 51 58 155 12 25 20
51 19 58 -2 6 2 12 8 12 5 0 10 6 10 14 0 7 7 19 15 26 8 7 15 21 15 31 0 11
7 19 15 19 9 0 15 9 15 23 0 12 12 35 26 50 14 15 24 34 21 41 -3 7 4 18 14
24 10 7 19 17 19 23 0 6 13 28 28 48 29 37 46 70 44 84 -1 4 3 7 10 7 6 0 8 3
5 6 -3 4 -2 15 3 24 13 24 -10 42 -60 46 -28 2 -50 -5 -82 -25z m31 -2295 c32
-2 67 -8 77 -14 12 -6 26 -7 34 -2 9 5 17 5 20 -1 4 -5 17 -11 29 -14 43 -8
61 -16 61 -28 0 -9 2 -9 8 -1 5 8 14 9 32 1 14 -5 31 -11 39 -13 8 -1 17 -8
21 -15 4 -6 13 -8 20 -4 6 4 20 -1 31 -11 10 -9 19 -14 19 -10 0 4 14 -2 31
-14 16 -12 33 -20 36 -17 3 3 23 -7 45 -23 22 -17 45 -27 51 -23 6 3 7 1 3 -5
-4 -7 -1 -12 6 -12 7 0 45 -25 85 -54 39 -30 75 -51 79 -48 4 4 4 2 1 -5 -8
-14 91 -116 104 -107 5 3 8 1 7 -4 -3 -10 67 -111 116 -167 14 -16 26 -35 26
-41 0 -6 6 -17 14 -23 8 -7 18 -26 21 -42 4 -16 12 -35 18 -42 19 -19 39 -69
42 -101 2 -16 7 -31 12 -35 16 -11 43 -121 30 -121 -7 0 -6 -4 3 -10 8 -5 12
-10 8 -10 -4 0 0 -9 10 -20 17 -21 24 -90 8 -90 -4 0 -5 -8 -1 -17 3 -10 7
-22 8 -28 1 -5 5 -12 8 -15 11 -9 19 -60 10 -60 -5 0 -9 -9 -8 -20 1 -11 4
-20 7 -20 10 0 10 -59 0 -65 -7 -4 -6 -13 1 -27 6 -12 7 -18 1 -14 -5 3 -13
-5 -16 -18 -3 -13 -9 -32 -13 -42 -4 -11 -2 -15 4 -11 10 6 9 -45 -1 -62 -3
-4 -8 -38 -11 -76 -4 -38 -8 -72 -11 -76 -2 -4 0 -10 6 -14 6 -4 -2 -24 -20
-51 -17 -24 -28 -49 -25 -54 3 -6 1 -10 -4 -10 -6 0 -11 -9 -11 -19 0 -11 -5
-23 -10 -26 -6 -4 -8 -10 -5 -15 3 -5 0 -12 -6 -15 -5 -4 -8 -13 -5 -21 3 -8
2 -14 -2 -14 -9 0 -54 -71 -54 -85 0 -5 -4 -15 -10 -22 -5 -7 -6 -18 -2 -24 4
-7 3 -9 -3 -6 -6 4 -14 0 -17 -9 -4 -10 -2 -13 6 -8 7 5 8 3 4 -5 -5 -7 -14
-10 -22 -7 -8 3 -14 -1 -14 -8 0 -8 -5 -16 -10 -18 -6 -2 -12 -13 -13 -25 0
-12 -4 -20 -7 -18 -8 5 -40 -32 -40 -46 0 -5 -4 -8 -9 -5 -5 3 -16 -9 -25 -27
-8 -17 -16 -28 -16 -24 0 4 -11 -4 -25 -19 -13 -14 -22 -31 -18 -37 3 -5 1 -7
-5 -3 -6 3 -13 2 -17 -4 -3 -5 -1 -10 4 -10 6 0 11 -5 11 -10 0 -6 -6 -10 -12
-9 -26 3 -39 -1 -33 -11 4 -6 3 -9 -2 -8 -19 5 -60 -17 -87 -46 -16 -17 -25
-24 -21 -16 4 8 -2 5 -13 -7 -12 -12 -30 -24 -42 -28 -11 -3 -20 -11 -20 -16
0 -5 -6 -8 -12 -7 -7 2 -12 -3 -10 -10 1 -8 -2 -10 -8 -7 -15 9 -55 -2 -74
-21 -9 -8 -25 -17 -37 -19 -12 -3 -29 -10 -38 -18 -9 -7 -26 -12 -39 -11 -14
1 -21 -3 -19 -10 3 -7 -5 -11 -22 -11 -14 1 -35 -3 -46 -9 -25 -13 -40 -16
-90 -21 -22 -2 -41 -9 -43 -15 -3 -7 -10 -7 -23 0 -10 6 -19 7 -19 2 0 -5 -21
-10 -47 -10 -189 -3 -244 -2 -261 7 -11 6 -22 8 -25 4 -4 -3 -44 0 -89 8 -46
7 -85 13 -88 14 -3 0 -11 4 -19 9 -7 5 -27 10 -44 11 -17 2 -33 8 -35 14 -2 6
-11 11 -20 11 -25 0 -91 25 -111 41 -9 8 -25 16 -36 17 -11 2 -22 7 -25 10 -3
4 -30 20 -60 36 -30 16 -77 46 -103 65 -27 20 -53 35 -58 33 -5 -1 -9 3 -9 8
0 13 -46 60 -58 60 -6 0 -16 10 -25 23 -8 12 -42 50 -76 85 -33 35 -61 67 -61
70 0 4 -14 21 -30 39 -17 18 -30 37 -30 42 0 6 -5 11 -11 11 -5 0 -8 4 -5 9 3
5 -1 14 -9 21 -8 7 -15 21 -15 31 0 11 -4 19 -8 19 -5 0 -19 24 -31 53 -13 28
-27 60 -32 69 -5 10 -9 25 -9 33 0 8 -9 32 -20 52 -11 21 -20 43 -20 50 0 6
-5 24 -12 40 -6 15 -10 38 -9 51 2 13 -3 29 -9 37 -7 8 -13 32 -15 54 -2 22
-6 45 -10 51 -3 5 -1 10 5 10 8 0 8 6 0 20 -6 11 -8 20 -4 20 3 0 2 6 -3 13
-5 6 -7 23 -3 37 4 14 3 35 -1 47 -5 12 -4 25 0 28 5 3 5 20 1 39 -4 19 -6 37
-3 40 3 2 7 33 9 67 2 35 10 67 17 71 9 6 8 8 -3 8 -9 0 -11 3 -4 8 14 10 27
45 13 36 -6 -3 -3 8 5 25 9 17 16 33 16 36 -1 21 1 26 8 22 4 -3 8 5 9 16 5
69 17 114 31 125 10 7 16 14 15 15 -5 5 10 47 17 47 4 0 12 18 19 40 6 22 16
40 21 40 6 0 10 8 10 18 0 10 11 29 25 42 14 13 25 29 25 35 0 6 11 22 25 35
14 13 25 27 25 32 0 9 16 31 38 51 7 7 21 21 30 31 39 44 155 152 180 167 77
44 102 62 97 69 -3 4 9 10 26 14 16 3 37 12 45 21 8 8 37 22 64 32 28 10 50
21 50 25 0 5 8 8 18 8 10 0 23 5 30 12 7 7 12 9 12 5 0 -4 9 2 20 13 12 12 25
18 30 15 6 -3 18 -2 27 3 10 6 26 6 40 1 16 -6 23 -5 23 4 0 8 4 7 10 -3 9
-13 10 -13 10 0 0 12 2 12 9 1 5 -7 11 -9 14 -4 6 9 56 15 140 17 20 1 37 5
37 9 0 4 8 3 18 -2 10 -5 24 -6 30 -2 7 4 33 7 57 6 25 -1 42 2 39 6 -3 5 7 4
21 -1 15 -6 53 -12 84 -14z m891 -179 c0 4 7 -1 15 -11 8 -11 15 -15 15 -10 0
5 9 10 20 10 11 0 20 -3 20 -7 0 -4 17 -10 38 -15 37 -8 47 -9 112 -19 83 -11
110 -18 110 -26 0 -10 56 -6 66 4 4 3 13 0 21 -8 17 -17 37 -20 27 -4 -4 7 3
6 17 -2 32 -17 51 -20 42 -6 -3 7 2 5 13 -4 10 -9 27 -15 37 -14 9 2 17 -1 17
-6 0 -4 7 -6 15 -3 8 3 29 1 46 -5 22 -8 36 -8 45 -1 8 8 14 8 19 0 3 -6 11
-8 16 -5 5 4 9 2 9 -2 0 -9 19 -12 97 -13 24 0 46 -7 54 -16 7 -8 15 -11 18
-6 3 5 14 6 24 3 15 -6 12 -12 -23 -50 -23 -24 -39 -46 -36 -48 2 -3 -13 -22
-35 -44 -21 -21 -37 -39 -34 -39 3 0 -6 -18 -20 -40 -13 -21 -26 -45 -27 -52
-2 -7 -9 -18 -16 -23 -7 -6 -14 -17 -16 -25 -2 -8 -13 -36 -25 -63 -12 -26
-20 -51 -17 -56 3 -5 -1 -14 -9 -21 -8 -7 -13 -16 -10 -20 3 -4 -2 -13 -10
-20 -7 -6 -12 -17 -10 -23 7 -18 -19 -46 -41 -46 -10 1 -51 -1 -91 -4 -70 -5
-72 -4 -82 22 -6 14 -13 35 -15 46 -5 23 -27 75 -62 151 -13 28 -24 55 -24 59
0 4 -11 23 -25 40 -13 18 -21 35 -18 39 4 3 1 6 -5 6 -6 0 -14 9 -17 21 -4 12
-15 31 -26 43 -10 11 -18 25 -18 29 0 4 -13 23 -29 42 -16 18 -32 39 -35 47
-4 10 -8 10 -17 -2 -9 -12 -10 -11 -6 6 5 15 -3 28 -27 50 -18 16 -35 33 -38
38 -8 17 -80 86 -89 86 -5 0 -7 7 -4 15 5 11 11 12 25 4 10 -5 19 -6 19 -2z
m1178 -209 c6 -1 12 -6 12 -11 0 -5 7 -7 15 -3 8 3 15 0 15 -7 0 -7 3 -8 8 -2
7 11 40 13 57 4 6 -3 19 -5 30 -5 11 1 26 -5 34 -12 7 -7 23 -12 35 -10 11 1
27 -1 34 -6 7 -4 20 -5 28 -2 9 3 12 1 9 -4 -3 -6 3 -10 14 -10 11 0 22 -4 25
-9 3 -4 17 -7 31 -6 14 2 25 -1 25 -6 0 -6 5 -7 10 -4 6 3 10 1 10 -4 0 -6 3
-10 8 -10 4 1 9 0 12 -1 3 -1 18 -4 35 -6 16 -3 35 -10 42 -15 6 -6 31 -10 55
-11 24 0 63 -10 87 -21 24 -11 50 -20 57 -20 8 0 14 -4 14 -9 0 -4 16 -8 35
-8 19 0 35 -4 35 -8 0 -4 12 -9 27 -10 15 -1 32 -7 37 -12 6 -6 17 -10 26 -10
8 0 30 -13 47 -29 18 -16 34 -24 36 -18 2 6 9 4 17 -5 8 -8 22 -13 32 -10 10
2 18 -1 18 -7 0 -6 11 -11 24 -11 14 0 28 -4 31 -10 3 -5 14 -10 24 -10 10 0
29 -8 42 -18 13 -11 32 -20 42 -20 41 -4 46 -6 44 -16 -1 -6 6 -10 16 -8 9 2
17 -2 17 -7 0 -5 9 -8 20 -6 11 2 20 0 20 -6 0 -5 6 -8 13 -6 6 1 11 -3 10 -9
-1 -6 3 -11 10 -12 35 -2 61 -14 74 -32 8 -11 18 -18 22 -16 4 3 29 -15 55
-39 26 -24 49 -44 52 -44 2 -1 10 -1 17 -1 7 0 23 -9 35 -20 12 -12 22 -18 22
-14 0 4 15 -9 34 -28 42 -43 100 -80 110 -70 4 4 6 2 4 -4 -1 -7 9 -23 24 -37
15 -14 24 -28 21 -31 -4 -3 -1 -6 6 -6 7 0 9 -4 6 -10 -3 -5 -2 -10 4 -10 14
0 101 -85 101 -99 0 -7 14 -24 30 -38 17 -13 28 -28 25 -32 -2 -4 9 -22 25
-39 16 -17 32 -41 35 -54 4 -12 15 -30 25 -40 16 -18 30 -42 49 -90 5 -13 19
-44 31 -71 12 -26 19 -54 16 -62 -3 -8 0 -17 6 -21 7 -5 8 -2 3 6 -5 9 -4 11
4 6 9 -6 9 -11 0 -22 -9 -11 -9 -14 1 -14 7 0 10 -7 6 -16 -3 -8 -2 -12 3 -9
24 14 35 -59 15 -90 -8 -12 -11 -25 -7 -28 3 -4 1 -7 -5 -7 -20 0 -116 -156
-105 -172 2 -5 0 -8 -5 -8 -4 0 -19 -19 -32 -42 -23 -42 -32 -54 -57 -83 -7
-7 -13 -18 -13 -24 0 -6 -7 -8 -15 -5 -13 6 -20 -6 -16 -28 0 -5 -6 -8 -14 -8
-9 0 -18 -7 -21 -15 -4 -8 -10 -15 -15 -15 -4 0 -39 -29 -76 -65 -37 -36 -82
-72 -100 -80 -18 -9 -35 -19 -38 -24 -2 -5 -24 -19 -47 -31 -24 -12 -46 -27
-50 -34 -5 -7 -8 -6 -8 3 0 11 -4 10 -16 -5 -8 -10 -13 -13 -9 -7 4 9 1 11 -9
7 -9 -3 -16 -14 -17 -23 0 -11 -2 -12 -6 -3 -4 10 -11 8 -28 -8 -13 -12 -38
-23 -57 -25 -18 -2 -44 -7 -58 -12 -14 -5 -47 -9 -75 -8 -27 1 -56 -3 -62 -8
-8 -6 -13 -6 -13 0 0 5 -51 9 -117 8 -65 0 -124 3 -131 9 -7 5 -47 10 -88 11
-42 1 -80 7 -86 13 -8 8 -17 8 -31 1 -14 -8 -18 -8 -13 0 4 7 -1 11 -13 11
-12 0 -21 6 -21 13 0 8 -4 7 -10 -3 -8 -12 -10 -12 -10 -1 0 11 -3 11 -15 1
-12 -10 -15 -10 -15 0 0 9 -4 9 -17 -1 -14 -12 -16 -12 -8 0 6 11 4 13 -8 8
-9 -3 -18 0 -21 9 -4 9 -21 14 -55 14 -32 0 -55 6 -65 16 -11 11 -16 12 -16 3
0 -10 -3 -10 -12 -1 -7 7 -20 12 -30 12 -10 0 -18 5 -18 12 0 6 -3 9 -6 6 -3
-4 -17 0 -31 7 -15 8 -30 12 -35 9 -4 -3 -8 0 -8 5 0 6 -7 11 -15 11 -8 0 -34
11 -57 24 -24 13 -49 21 -55 19 -7 -3 -16 2 -19 11 -7 18 -79 57 -90 48 -4 -4
-4 -2 -1 4 5 9 -42 54 -58 54 -3 0 -15 9 -27 20 -12 11 -30 20 -39 20 -13 0
-17 6 -14 21 3 12 2 19 -1 16 -6 -6 -62 46 -58 54 2 3 -12 22 -30 42 -19 21
-32 37 -29 37 4 0 -7 14 -34 45 -7 7 -13 17 -13 22 0 5 -13 22 -28 39 -17 19
-27 41 -27 57 1 15 -2 27 -7 27 -4 0 -8 7 -8 15 0 22 -44 106 -73 141 -22 27
-27 61 -7 49 11 -7 6 17 -19 85 -11 30 -25 54 -31 52 -8 -2 -8 3 -2 14 5 10 6
30 2 45 -5 15 -6 30 -2 33 3 3 1 6 -4 6 -11 0 -12 170 -1 188 5 7 4 12 -2 12
-6 0 -10 11 -9 24 1 14 5 23 9 20 4 -2 10 0 13 5 4 5 2 12 -2 15 -5 3 -6 26
-2 51 4 24 4 48 1 51 -9 9 -7 48 3 55 5 4 5 13 0 20 -11 18 -14 40 -5 35 4 -3
13 16 20 42 8 26 17 52 21 57 13 19 20 46 10 40 -14 -8 0 27 18 44 10 10 11
16 2 21 -9 6 -9 9 -1 15 12 7 61 109 61 127 0 5 11 21 25 36 14 15 28 37 31
49 3 12 15 25 25 28 10 4 19 13 19 20 0 27 54 103 84 119 17 8 42 13 56 10 14
-2 31 -5 38 -6z m1847 -808 c3 -5 1 -10 -4 -10 -6 0 -11 5 -11 10 0 6 2 10 4
10 3 0 8 -4 11 -10z m525 -1594 c0 -2 -7 -7 -16 -10 -8 -3 -12 -2 -9 4 6 10
25 14 25 6z"/>
<path d="M1653 3376 c4 -11 1 -13 -10 -9 -12 5 -15 2 -10 -10 4 -10 2 -17 -4
-17 -6 0 -9 -6 -6 -12 2 -7 1 -22 -3 -33 -4 -11 -3 -26 2 -32 6 -7 6 -13 1
-13 -12 0 -14 -38 -2 -45 5 -4 6 -11 3 -17 -9 -15 -12 -98 -4 -98 4 0 7 -7 7
-15 0 -8 -4 -15 -8 -15 -8 0 -3 -59 6 -68 2 -3 0 -11 -6 -18 -6 -8 -6 -14 0
-18 11 -7 3 -70 -10 -74 -6 -3 -6 -8 0 -16 10 -12 13 -69 9 -136 -2 -21 2 -35
9 -35 6 0 15 -4 20 -9 5 -5 3 -6 -4 -2 -8 4 -13 2 -14 -6 0 -7 -2 -24 -4 -38
-1 -14 0 -29 3 -35 10 -16 11 -35 2 -35 -4 0 -4 -18 0 -40 5 -26 3 -41 -4 -43
-8 -3 -7 -9 2 -20 8 -9 11 -21 7 -27 -3 -5 0 -10 7 -10 9 0 9 -3 -2 -10 -10
-6 -11 -10 -3 -10 7 0 12 -3 11 -7 -1 -5 3 -17 9 -29 7 -12 8 -25 2 -35 -12
-19 -12 -62 1 -54 9 6 14 -12 12 -45 0 -8 3 -17 8 -20 4 -3 10 -21 14 -40 10
-64 19 -95 28 -107 5 -7 7 -17 4 -22 -4 -5 -2 -12 4 -16 6 -4 8 -11 5 -16 -4
-5 -1 -9 4 -9 6 0 10 -3 9 -7 -1 -5 3 -19 9 -33 19 -41 26 -65 25 -72 -1 -5 3
-8 9 -8 5 0 8 -4 4 -9 -3 -5 -1 -12 5 -16 5 -3 17 -23 26 -43 33 -76 50 -108
75 -147 14 -22 35 -62 47 -88 13 -26 29 -50 37 -53 8 -4 12 -11 8 -17 -4 -7 0
-8 12 -3 14 5 16 4 6 -7 -8 -11 -4 -23 19 -55 17 -23 30 -46 30 -52 0 -5 5
-11 10 -11 6 -1 16 -2 23 -3 6 -1 11 -7 9 -14 -2 -13 25 -72 34 -72 3 0 2 6
-2 13 -4 6 3 2 15 -10 11 -12 21 -26 21 -32 0 -15 108 -120 116 -112 4 3 4 1
1 -5 -4 -6 6 -22 21 -35 106 -93 126 -109 134 -109 5 0 6 5 2 12 -4 7 -3 8 5
4 6 -4 9 -11 6 -16 -7 -11 56 -60 76 -60 8 0 25 -7 37 -16 12 -8 22 -12 22 -9
0 3 10 -3 22 -15 12 -11 30 -20 40 -20 10 0 18 -4 18 -10 0 -5 9 -10 20 -10
11 0 20 -4 20 -10 0 -5 9 -10 21 -10 11 0 17 -5 14 -10 -10 -16 31 -11 45 5
11 13 14 13 26 -2 8 -11 13 -13 14 -6 0 16 -46 47 -59 39 -5 -3 -7 3 -4 14 3
13 0 20 -9 20 -7 0 -20 9 -28 20 -8 11 -19 20 -25 20 -6 0 -17 9 -25 19 -7 11
-17 18 -22 15 -4 -3 -8 2 -8 10 0 9 -4 16 -8 16 -5 0 -36 27 -69 60 -33 33
-58 60 -55 60 6 0 -44 65 -82 107 -16 18 -33 30 -39 26 -6 -3 -7 -1 -3 5 6 9
-18 44 -69 99 -11 11 -28 32 -38 45 -9 12 -33 43 -52 66 -19 24 -35 50 -35 58
0 8 -4 14 -9 14 -4 0 -21 19 -37 43 -38 56 -55 89 -43 82 5 -4 -4 14 -21 38
-16 25 -30 50 -30 56 0 6 -4 11 -10 11 -5 0 -9 3 -8 8 2 11 -20 59 -31 66 -6
4 -8 13 -5 21 4 8 -1 18 -10 21 -9 3 -16 14 -16 23 0 10 -3 21 -7 25 -5 4 -8
11 -9 14 -1 8 -17 47 -53 122 -14 30 -24 58 -23 63 1 4 -2 7 -6 7 -5 0 -9 16
-10 35 -1 19 -6 43 -11 53 -10 20 -31 109 -37 162 -10 87 -12 98 -18 108 -3 6
-3 13 2 16 5 3 7 19 4 35 -2 17 -8 29 -12 26 -4 -2 -5 8 -3 23 5 29 5 38 -2
117 -2 28 -6 86 -8 130 -2 44 -5 85 -7 90 -1 6 -1 12 0 15 8 21 8 49 0 72 -6
19 -5 30 2 34 7 5 4 12 -8 22 -14 11 -15 13 -3 9 14 -5 16 3 13 49 -2 30 -6
59 -10 65 -3 5 0 16 6 24 8 9 8 15 2 15 -6 0 -9 12 -7 27 4 37 -22 89 -52 102
-36 16 -76 14 -70 -3z"/>
<path d="M5728 2609 c-5 -15 -38 -21 -38 -7 0 6 -6 6 -15 -2 -8 -6 -19 -9 -25
-5 -5 3 -10 2 -10 -4 0 -5 -15 -13 -32 -16 -18 -4 -37 -11 -43 -15 -5 -4 -25
-11 -42 -15 -18 -3 -33 -11 -33 -16 0 -6 -4 -8 -9 -5 -4 3 -44 -13 -87 -35
-44 -23 -96 -50 -116 -60 -20 -10 -40 -23 -43 -29 -3 -5 -15 -10 -26 -10 -10
0 -19 -4 -19 -9 0 -9 -48 -26 -62 -23 -5 1 -8 -2 -8 -8 0 -5 -8 -10 -17 -10
-10 0 -31 -7 -47 -15 -15 -8 -38 -15 -50 -15 -12 0 -26 -4 -32 -10 -5 -5 -18
-11 -29 -13 -11 -2 -27 -6 -35 -9 -16 -6 -102 -31 -110 -33 -3 0 -10 -4 -17
-8 -6 -4 -14 -3 -17 2 -6 10 -46 3 -46 -8 0 -3 -37 -5 -82 -3 -46 1 -126 3
-178 3 -52 1 -100 6 -106 11 -7 5 -29 11 -50 13 -22 3 -55 8 -74 11 -19 3 -41
6 -47 7 -7 0 -13 4 -13 9 0 4 -8 8 -17 8 -10 0 -30 7 -45 14 -20 11 -28 12
-28 3 0 -9 -2 -9 -8 -1 -9 14 -74 49 -84 46 -5 -1 -8 2 -8 7 0 5 -16 12 -35
15 -20 4 -33 11 -30 16 3 4 -19 16 -47 26 -51 16 -106 49 -178 105 -19 15 -46
29 -60 31 -14 2 -33 10 -42 18 -24 20 -89 19 -111 -1 -18 -17 -18 -19 -1 -55
10 -20 20 -32 22 -26 2 7 12 2 25 -12 12 -13 28 -21 35 -19 6 3 12 -2 12 -11
0 -9 7 -16 15 -16 7 0 19 -8 24 -17 6 -10 11 -14 11 -10 0 4 6 2 14 -5 8 -7
11 -17 8 -22 -3 -5 4 -7 16 -4 15 4 19 2 15 -8 -3 -8 0 -14 6 -14 5 0 19 -9
30 -21 17 -19 35 -26 69 -28 7 -1 11 -5 7 -10 -3 -5 0 -13 6 -17 6 -3 15 -1
19 6 5 8 9 7 13 -4 4 -9 16 -16 27 -16 11 0 20 -5 20 -11 0 -5 -6 -7 -12 -3
-8 4 -10 3 -5 -2 5 -5 12 -9 16 -9 7 0 14 -6 64 -50 16 -14 33 -22 39 -19 6 4
8 2 4 -4 -3 -6 9 -15 31 -22 21 -7 46 -19 56 -28 9 -8 17 -12 17 -9 0 3 15 0
34 -8 18 -8 36 -12 39 -9 3 3 20 -2 39 -12 18 -9 46 -18 62 -20 16 -1 31 -7
35 -12 4 -6 19 -9 34 -8 16 2 35 -3 43 -11 8 -9 14 -10 14 -3 0 8 6 8 21 -1
12 -6 68 -12 125 -12 63 -1 104 -6 104 -12 0 -7 3 -7 8 0 4 6 18 11 32 12 34
2 112 13 128 18 6 3 12 0 12 -4 0 -5 16 -1 36 9 47 25 97 43 108 41 5 -1 16 5
25 12 9 8 33 20 54 28 20 7 37 16 37 21 0 4 16 10 37 14 20 4 48 13 62 20 14
8 31 14 37 14 7 0 14 6 17 14 3 7 24 16 47 20 23 3 38 11 35 16 -3 6 2 10 13
10 10 0 32 12 48 26 16 14 54 38 84 54 30 16 70 42 89 57 68 56 191 184 191
199 0 8 4 13 9 9 16 -9 22 12 7 24 -11 9 -15 9 -18 0z"/>
<path d="M7274 2113 c4 -8 1 -13 -8 -13 -8 0 -18 -5 -22 -12 -5 -7 -3 -8 6 -3
9 6 11 4 6 -4 -5 -7 -11 -10 -14 -7 -3 3 -11 1 -19 -6 -11 -9 -12 -7 -7 8 3
10 -3 6 -14 -10 -12 -17 -19 -32 -17 -36 2 -3 -4 -6 -13 -7 -35 -3 -54 -10
-63 -24 -5 -8 -9 -10 -9 -6 0 5 -19 -6 -42 -25 -23 -18 -47 -33 -53 -33 -5 -1
-8 -7 -7 -15 2 -8 1 -12 -3 -8 -9 9 -85 -31 -92 -49 -4 -11 -8 -12 -13 -3 -6
9 -13 7 -28 -8 -15 -15 -17 -23 -8 -32 8 -8 6 -9 -8 -4 -15 6 -17 4 -11 -7 8
-12 6 -12 -8 0 -17 13 -23 6 -18 -22 0 -4 -2 -6 -6 -6 -20 3 -34 -2 -28 -10 3
-5 1 -12 -5 -16 -5 -3 -10 -1 -10 4 0 6 -19 -7 -42 -29 -24 -22 -46 -40 -51
-40 -4 0 -20 -11 -35 -25 -15 -14 -33 -25 -40 -25 -7 0 -11 -4 -7 -9 3 -5 -4
-16 -15 -24 -11 -7 -17 -17 -12 -22 4 -5 1 -5 -6 -1 -7 4 -24 -2 -38 -13 -15
-12 -23 -21 -18 -21 5 0 -7 -8 -26 -18 -45 -22 -70 -43 -70 -60 0 -7 -4 -11
-9 -7 -5 3 -27 -5 -47 -17 -21 -12 -44 -23 -51 -24 -8 -1 -23 -13 -34 -26 -11
-12 -17 -17 -13 -9 4 7 -7 4 -24 -9 -16 -12 -35 -20 -40 -16 -5 3 -15 -1 -22
-9 -7 -8 -20 -15 -30 -15 -9 0 -29 -11 -44 -25 -14 -13 -26 -22 -26 -19 0 2
-10 -2 -23 -11 -13 -8 -27 -12 -30 -8 -4 3 -7 1 -7 -6 0 -7 -6 -11 -14 -8 -8
3 -17 -1 -20 -9 -3 -8 -12 -14 -21 -14 -8 0 -15 -4 -15 -8 0 -5 -6 -9 -12 -10
-40 -3 -85 -16 -106 -30 -14 -9 -30 -17 -36 -17 -13 0 -146 -45 -161 -54 -5
-3 -16 -7 -22 -8 -33 -7 -40 -10 -63 -23 -14 -8 -32 -13 -41 -12 -9 2 -22 -4
-29 -13 -10 -12 -16 -13 -26 -4 -11 9 -18 8 -30 -2 -9 -7 -21 -14 -28 -16 -6
-1 -31 -7 -56 -13 -114 -26 -110 -25 -140 -37 -16 -7 -32 -7 -43 -1 -12 6 -19
5 -22 -4 -3 -7 -22 -14 -42 -16 -20 -1 -39 -6 -43 -10 -3 -4 -24 -8 -47 -8
-24 1 -43 -2 -43 -5 0 -7 -6 -8 -106 -12 -44 -2 -85 -6 -90 -8 -13 -7 -432 -3
-479 4 -22 4 -64 9 -93 12 -30 3 -58 8 -63 11 -6 3 -33 8 -61 10 -28 2 -54 7
-59 10 -5 3 -9 -1 -9 -8 0 -10 -2 -10 -9 1 -5 8 -16 11 -26 8 -9 -4 -14 -3
-10 3 4 6 -6 10 -22 11 -15 0 -35 2 -43 4 -36 10 -87 19 -107 19 -13 1 -23 4
-23 9 0 4 -6 7 -14 7 -8 0 -21 6 -28 14 -8 7 -26 14 -41 14 -15 0 -37 8 -49
18 -15 13 -19 14 -14 4 5 -9 2 -8 -7 2 -8 10 -17 15 -20 12 -5 -6 -57 8 -107
29 -14 6 -39 10 -57 11 -18 0 -35 6 -37 12 -3 7 -16 11 -30 10 -14 -2 -31 3
-37 10 -6 8 -17 14 -23 14 -6 0 -22 6 -36 14 -128 69 -203 106 -215 106 -8 0
-15 4 -15 8 0 10 -80 48 -92 45 -5 -2 -8 2 -8 9 0 6 -3 9 -6 6 -3 -3 -18 6
-34 21 -16 15 -42 28 -57 29 -15 1 -31 9 -36 17 -4 8 -15 15 -22 15 -8 0 -15
5 -15 10 0 6 -8 10 -17 10 -10 0 -27 7 -37 15 -10 8 -23 12 -27 9 -5 -3 -9 2
-9 10 0 9 -3 15 -7 14 -5 -1 -21 4 -38 11 -16 6 -36 14 -42 16 -7 2 -13 9 -13
15 0 5 -6 10 -14 10 -21 0 -67 26 -59 33 3 4 -1 7 -10 7 -10 0 -17 4 -17 10 0
5 -16 20 -35 32 -19 13 -37 31 -41 41 -3 9 -12 17 -20 17 -8 0 -14 3 -14 8 0
8 -6 11 -85 52 -27 14 -57 33 -67 43 -11 10 -23 15 -27 12 -5 -2 -11 2 -15 10
-8 21 -27 19 -22 -2 7 -38 28 -78 66 -126 22 -27 40 -54 40 -58 0 -5 7 -9 15
-9 8 0 27 -16 42 -35 15 -19 33 -35 39 -35 7 0 14 -9 17 -20 3 -11 9 -20 14
-19 19 3 53 -14 53 -27 0 -8 7 -14 15 -14 8 0 15 -5 15 -11 0 -5 5 -7 12 -3 7
4 8 3 4 -4 -8 -13 28 -35 39 -24 5 4 6 3 3 -3 -7 -12 17 -37 26 -28 3 4 6 1 6
-6 0 -7 5 -11 12 -9 7 3 21 -4 33 -13 11 -10 24 -18 28 -18 5 0 15 -8 23 -18
7 -10 14 -14 14 -10 0 5 7 1 16 -7 8 -9 20 -13 26 -10 6 4 8 2 5 -3 -4 -6 4
-18 18 -27 14 -9 25 -13 25 -9 0 3 11 -4 24 -17 14 -12 32 -20 40 -17 9 4 24
-5 38 -23 18 -23 25 -26 37 -17 10 8 12 8 8 1 -7 -13 30 -51 40 -41 3 4 14 -3
24 -14 11 -12 25 -19 34 -15 9 3 15 0 15 -9 0 -8 5 -15 10 -15 6 0 10 -7 10
-15 0 -8 6 -12 14 -9 7 3 20 -1 28 -8 23 -22 58 -39 67 -33 5 3 11 -2 15 -10
3 -8 12 -15 21 -15 8 0 15 -4 15 -10 0 -5 9 -10 19 -10 11 0 23 -5 26 -11 4
-6 13 -8 21 -5 8 3 14 1 14 -4 0 -6 9 -10 19 -10 11 0 23 -5 26 -11 4 -6 14
-8 22 -5 9 4 11 2 7 -6 -5 -7 1 -9 19 -6 15 3 28 1 30 -5 3 -11 36 -20 79 -21
14 -1 26 -5 25 -11 -1 -5 10 -10 26 -9 15 1 27 -2 27 -5 0 -9 55 -32 79 -34
12 -1 21 -5 21 -10 0 -5 9 -7 20 -4 11 3 20 1 20 -4 0 -5 3 -9 8 -8 14 2 52
-13 52 -22 0 -4 9 -6 20 -4 11 2 22 -1 26 -6 3 -6 12 -5 22 3 9 8 13 8 9 2 -8
-14 9 -22 41 -19 12 1 22 -2 22 -6 0 -4 10 -5 22 -1 16 4 19 2 13 -8 -6 -9 -4
-11 6 -5 18 12 49 14 43 3 -3 -4 11 -8 31 -8 20 0 34 -3 32 -7 -5 -8 23 -13
76 -13 15 -1 26 -4 23 -8 -3 -4 4 -9 15 -9 12 -1 17 3 13 10 -5 8 -3 8 7 0 7
-7 27 -13 44 -13 18 0 35 -3 39 -7 9 -9 207 -14 221 -5 15 10 36 11 30 3 -2
-5 24 -9 58 -11 105 -4 172 -7 182 -10 6 -1 12 -2 15 0 20 7 61 7 66 -1 3 -5
10 -6 16 -3 6 4 23 8 37 10 47 4 115 14 131 19 8 2 36 5 63 7 26 1 47 5 47 8
0 4 7 7 15 8 8 1 22 3 30 4 8 1 15 4 15 8 0 3 8 7 18 8 65 7 79 9 97 19 11 6
29 7 40 3 13 -4 24 -2 30 6 5 8 24 16 40 17 17 2 41 10 54 17 13 7 47 14 74
16 28 2 53 7 56 11 3 5 13 9 21 11 8 2 30 10 49 18 18 9 44 14 58 11 14 -2 27
1 29 7 3 7 12 12 22 13 31 2 46 8 60 21 7 6 22 13 33 13 34 2 38 4 51 17 6 6
25 12 40 12 15 0 28 5 28 11 0 5 5 7 10 4 6 -3 10 -1 10 4 0 6 7 11 16 11 8 0
12 4 9 10 -4 6 5 10 20 10 30 0 85 26 85 40 0 6 9 10 19 10 11 0 23 5 26 11 4
6 13 8 20 5 7 -2 26 4 44 15 17 10 31 15 31 11 0 -4 5 1 11 11 5 9 17 17 24
17 8 0 15 4 15 9 0 6 9 8 20 6 11 -2 20 0 20 6 0 5 3 8 8 7 4 -1 16 3 27 9 11
6 22 11 25 10 3 0 14 4 25 11 11 6 16 12 10 12 -13 1 76 42 92 43 7 0 10 4 7
9 -3 5 -10 5 -16 2 -7 -4 -8 -2 -4 5 4 6 11 9 16 6 4 -3 13 2 20 10 7 8 18 15
26 15 16 0 66 45 58 53 -3 3 2 4 13 3 11 -2 25 8 35 26 10 15 21 28 25 27 21
-3 32 3 38 20 3 11 21 25 40 31 18 6 44 24 56 40 13 16 26 27 30 24 11 -6 61
45 54 56 -3 6 2 13 12 17 10 4 28 17 40 30 12 13 27 23 33 23 5 0 10 9 10 21
0 11 4 18 10 14 9 -6 49 33 79 79 79 117 101 152 102 161 0 6 7 17 15 26 8 9
11 19 7 22 -3 4 -1 7 5 7 7 0 12 7 12 15 0 9 8 19 17 22 15 6 15 7 -3 14 -15
6 -16 8 -2 8 11 1 15 7 11 24 -4 18 -3 19 6 7 9 -12 11 -11 8 7 -2 12 -7 26
-12 30 -4 5 -5 2 -1 -4z"/>
<path d="M669 1469 c-7 -4 -18 -5 -26 -2 -7 3 -16 -2 -19 -11 -3 -9 -10 -13
-15 -10 -12 7 -49 -14 -75 -42 -12 -12 -24 -21 -26 -19 -2 3 -29 -19 -59 -47
-30 -28 -76 -68 -102 -90 -27 -21 -45 -38 -40 -38 8 -1 -28 -24 -37 -25 -3 0
-27 -21 -53 -47 -26 -26 -47 -44 -47 -41 0 4 -11 -8 -25 -27 -14 -19 -32 -38
-40 -43 -8 -4 -15 -15 -15 -24 0 -9 -6 -13 -15 -9 -8 3 -15 1 -15 -5 0 -6 -6
-16 -12 -24 -49 -51 -48 -46 -47 -233 1 -97 4 -165 6 -149 2 15 10 27 17 27
12 0 45 28 74 64 7 9 18 13 24 10 7 -4 8 -2 4 4 -4 7 -3 12 3 12 6 0 8 6 6 13
-3 6 8 21 25 32 16 11 30 24 30 28 0 4 12 19 28 33 15 14 27 31 27 37 0 7 8
11 18 11 9 -1 15 2 12 6 -3 4 10 21 28 37 17 15 42 41 54 57 13 16 23 25 23
20 0 -5 14 7 30 26 17 19 35 40 41 45 5 6 45 45 88 87 44 42 82 74 85 70 4 -3
4 2 0 13 -4 11 -4 17 0 13 4 -3 23 9 41 27 18 19 36 31 39 27 4 -3 4 2 0 12
-4 11 -3 17 2 14 5 -3 15 0 22 8 7 8 10 14 7 14 -14 0 29 50 44 51 10 0 11 2
3 6 -6 2 -10 9 -6 14 3 5 0 9 -6 9 -6 0 -9 4 -6 9 10 15 -6 43 -20 37 -8 -3
-14 -2 -14 3 0 12 -46 20 -61 10z"/>
<path d="M6900 1097 c0 -10 -5 -14 -15 -11 -8 4 -15 2 -15 -3 0 -5 11 -10 24
-11 16 -1 23 3 22 13 -3 21 -16 31 -16 12z"/>
<path d="M7425 960 c-5 -9 -4 -15 3 -18 7 -2 10 -8 7 -13 -3 -5 3 -22 15 -39
11 -16 29 -43 40 -60 11 -16 20 -32 20 -36 0 -4 8 -14 18 -23 10 -9 28 -31 41
-49 12 -18 27 -30 32 -27 5 4 9 1 9 -5 0 -6 4 -9 9 -5 6 3 8 -4 6 -15 -3 -13
4 -26 21 -36 13 -9 24 -22 24 -28 0 -7 10 -22 23 -34 20 -19 35 -22 105 -22
45 0 82 2 82 5 0 5 -47 56 -158 170 -75 77 -153 147 -159 142 -2 -3 -23 13
-45 34 -23 21 -44 37 -46 34 -3 -2 -12 5 -22 17 -13 17 -19 18 -25 8z"/>
<path d="M2785 830 c-8 -13 20 -24 41 -16 8 3 13 2 10 -3 -7 -11 22 -36 31
-27 3 3 1 6 -5 6 -7 0 -12 9 -12 21 0 14 -5 19 -15 16 -8 -4 -17 -2 -20 3 -8
13 -22 13 -30 0z"/>
</g>
</svg>
